<?xml version="1.0" standalone="no"?>
<!DOCTYPE svg PUBLIC "-//W3C//DTD SVG 20010904//EN"
 "http://www.w3.org/TR/2001/REC-SVG-20010904/DTD/svg10.dtd">
<svg version="1.0" xmlns="http://www.w3.org/2000/svg"
 width="325.000000pt" height="325.000000pt" viewBox="0 0 325.000000 325.000000"
 preserveAspectRatio="xMidYMid meet">
<metadata>
Created by potrace 1.14, written by Peter Selinger 2001-2017
</metadata>
<g transform="translate(0.000000,325.000000) scale(0.100000,-0.100000)"
fill="#000000" stroke="none">
<path d="M45 3198 c-3 -7 -4 -717 -3 -1578 l3 -1565 1575 0 1575 0 0 1575 0
1575 -1573 3 c-1253 2 -1574 0 -1577 -10z m3075 -1568 l0 -1500 -1500 0 -1500
0 0 1500 0 1500 1500 0 1500 0 0 -1500z"/>
<path d="M995 2554 c-151 -37 -256 -136 -291 -274 -31 -122 1 -243 90 -338 66
-71 142 -106 239 -111 107 -4 111 -2 90 51 -21 56 -20 55 -41 28 -24 -29 -44
-22 -64 22 -34 73 -34 78 11 78 46 0 45 -1 30 34 -9 19 -21 26 -48 28 l-36 3
0 115 0 115 83 3 c65 2 82 0 82 -11 0 -8 3 -28 6 -45 l6 -31 -68 -3 -69 -3 95
-27 c68 -20 118 -28 174 -28 77 0 78 0 72 -24 -5 -20 -1 -25 21 -31 38 -9 44
8 40 106 -2 68 -9 97 -30 141 -33 68 -109 141 -180 173 -52 24 -168 40 -212
29z m105 -106 c30 -66 28 -68 -45 -68 -36 0 -65 2 -65 5 0 11 31 79 41 92 22
26 49 15 69 -29z m-155 5 c-3 -10 -9 -30 -12 -45 -5 -26 -9 -28 -60 -28 -51 0
-54 1 -42 17 16 19 98 73 112 73 5 0 6 -8 2 -17z m281 -11 c21 -16 45 -36 53
-45 12 -15 9 -17 -37 -17 l-50 0 -15 45 c-19 55 -8 58 49 17z m-318 -174 l-3
-43 -72 -3 c-80 -3 -86 3 -63 62 9 24 14 26 75 26 l66 0 -3 -42z m441 5 c6
-21 11 -41 11 -45 0 -5 -34 -8 -75 -8 l-75 0 0 29 c0 16 -3 36 -6 45 -5 14 4
16 64 16 l71 0 10 -37z m-441 -160 l3 -43 -66 0 c-61 0 -66 2 -75 26 -23 59
-17 65 63 62 l72 -3 3 -42z m22 -128 c5 -14 13 -37 16 -51 l7 -26 -39 20 c-22
11 -52 34 -68 51 l-30 31 52 0 c47 0 54 -3 62 -25z"/>
<path d="M1625 1670 l-730 -730 28 -27 27 -28 732 732 732 732 -24 26 c-13 14
-26 25 -29 25 -3 0 -334 -328 -736 -730z"/>
<path d="M1093 2118 c59 -150 110 -275 114 -281 3 -5 17 9 32 32 l27 40 48
-41 49 -42 30 34 30 34 -49 43 -49 43 35 29 c26 22 31 31 20 35 -32 12 -278
86 -285 86 -4 0 -5 -6 -2 -12z"/>
<path d="M2100 1045 l0 -315 35 0 35 0 2 263 3 262 40 -157 40 -158 37 0 c42
0 32 -23 90 205 l33 130 3 -272 2 -273 35 0 35 0 0 315 0 316 -62 -3 -63 -3
-32 -140 c-18 -77 -33 -147 -35 -155 -2 -8 -19 56 -38 143 l-35 157 -62 0 -63
0 0 -315z"/>
</g>
</svg>
