<?xml version="1.0" encoding="UTF-8"?><svg id="Layer_2" xmlns="http://www.w3.org/2000/svg" viewBox="0 0 371.54 100.58"><defs><style>.cls-1{fill:none;}.cls-2{fill:#010100;}.cls-3{fill:#eccdff;}.cls-4{fill:#ffcb15;}.cls-5{fill:#fefefe;}.cls-6{fill:#ff8f00;}</style></defs><g id="Layer_1-2"><path class="cls-1" d="m23.68,92.2c.19-.75.43-1.47.8-2.08-.36.61-.6,1.33-.8,2.08Z"/><path class="cls-1" d="m27.11,87.79c.67-.67,1.33-1.34,2.17-1.7-.84.36-1.5,1.04-2.17,1.7Z"/><path class="cls-1" d="m66.94,96.61c-.52,0-1.04,0-1.57,0,.52.06,1.04.13,1.57,0Z"/><path class="cls-1" d="m83.61,84.63q-.13-.06,0,0h0Z"/><path class="cls-1" d="m25.05,96.6c1.31,0,2.88-.13,4.03-.18-.91-.11-2.61.14-4.03.18Z"/><path class="cls-1" d="m29.63,85.94c.5,0,1.01,0,1.51,0-.49,0-.97,0-1.46,0,0,0-.06,0-.06,0h0Z"/><path class="cls-1" d="m335.3,80.54c-.32.06-.65.13-.99.18-.06,0-.12.01-.18.02.06,0,.12-.01.18-.02.33-.05.66-.11.99-.18Z"/><path class="cls-1" d="m22.65,95.5c.26-.48.44-1.02.6-1.58-.16.56-.34,1.1-.6,1.58-.15.37-.02.63.31.8-.26-.17-.39-.42-.31-.8Z"/><path class="cls-1" d="m308.04,82.21c-11.36.08-22.78-.29-34.13-.1,11.37-.05,22.77.24,34.13.1Z"/><path class="cls-1" d="m339.1,80.42c-.35-.29-.86-.35-1.49-.29.6-.05,1.12.01,1.49.29Z"/><path class="cls-1" d="m94.27,84.38c31.84-.73,63.75-1.08,95.66-1.35-31.93.17-63.85.39-95.66,1.35Z"/><path class="cls-1" d="m72.29,84.68c.73-.07,1.49-.09,2.26-.07-.76-.02-1.52,0-2.26.07Z"/><path class="cls-1" d="m43.31,85.9c3.91-.15,7.82-.29,11.74-.42-3.94.06-7.87.16-11.74.42Z"/><path class="cls-1" d="m190.92,97.31c-2.03-.02-4.06-.13-5.96-.31,1.9.18,3.93.29,5.96.31Z"/><path class="cls-1" d="m26.79,27.4c-.26.31-.26.74.15,1.31.23.14.5.27.79.39-.29-.12-.56-.25-.79-.39-.41-.57-.41-.99-.15-1.31Z"/><path class="cls-1" d="m22.88,68.79c-1.52.16-1.99,1.25-2.1,2.59.14-1.35.64-2.44,2.1-2.59Z"/><path class="cls-1" d="m20.88,75.89s0,0,0,.01c67.11-3.39,136.18-2.48,204.56-4.27-68.38,1.8-137.45.88-204.56,4.27,0,0,0,0,0-.01Z"/><path class="cls-1" d="m343.09,62.14c-.42-.27-.97-.24-1.54-.19.57-.05,1.12-.08,1.54.19Z"/><path class="cls-1" d="m343.2,62.22c.4.78.8,1.78.84,2.66-.02-.88-.39-1.87-.84-2.66Z"/><path class="cls-1" d="m24.35,28.98c.03-.2.03-.4-.11-.49.14.1.14.29.11.49Z"/><path class="cls-1" d="m193.31,62.4c-58.11-.18-116.13-.07-173.16,2.75.03,0,.05,0,.08,0,57.01-2.82,115-2.92,173.08-2.75Z"/><path class="cls-1" d="m102.15,96.7c-1.77.04-3.53.16-5.3.21,1.75,0,3.52-.15,5.3-.21Z"/><path class="cls-1" d="m184.59,96.99s-.04.01-.06.02c.14,0,.29,0,.43-.01-.14-.02-.29-.02-.43-.03.02,0,.04.01.06.02Z"/><path class="cls-1" d="m196.88,97.07s0,0,0,0c12.71-.04,25.42-.05,38.13-.05-13.42,0-26.83-.02-40.23-.02.7.02,1.41.05,2.1.07Z"/><path class="cls-1" d="m333.6,96.53c4.79-.82,6.7-3.75,5.92-12.68.75,8.79-1.09,11.82-5.92,12.68Z"/><path class="cls-1" d="m291.33,96.92c11.05-.05,22.1-.12,33.15-.25.03,0,.06,0,.09,0-.03,0-.06,0-.09,0-11.04.12-22.1.2-33.15.25Z"/><path class="cls-1" d="m145.88,96.99s.07-.02.12-.07h0s-.08.07-.12.07Z"/><path class="cls-1" d="m183.68,96.94c-.55,0-1.1.04-1.66.07.56.01,1.11.03,1.67.03-.05-.01-.1-.02-.15-.04.05-.02.1-.04.15-.05Z"/><path class="cls-1" d="m140.2,96.87c.92,0,1.83,0,2.75,0-.92,0-1.83,0-2.75,0h0Z"/><path class="cls-1" d="m165.66,96.79c4.89,0,9.82.15,14.61.21-4.79-.06-9.72-.21-14.61-.21Z"/><path class="cls-1" d="m156.95,96.97c2.86-.14,5.78-.19,8.71-.19-2.93,0-5.85.04-8.71.19Z"/><path class="cls-1" d="m86.49,90.24s0,.06,0,.08c.09-.41.21-.8.35-1.16-.15.32-.28.67-.35,1.07Z"/><path class="cls-1" d="m85.78,93.78c.16-.53.27-1.1.38-1.67-.17.57-.34,1.14-.38,1.67Z"/><path class="cls-1" d="m32,91.78c.1-.29.09-.66,0-.97.09.31.1.68,0,.97Z"/><path class="cls-1" d="m31.18,90.37c-.06.06-.13.13-.2.22h0c.07-.09.13-.17.2-.22Z"/><path class="cls-1" d="m30.99,90.59c-.49-.11-.86-.1-1.15-.02.26-.03.62-.02,1.15.02Z"/><path class="cls-1" d="m30.09,92.59c-.21-.01-.41-.09-.61-.2.16.13.37.21.61.2Z"/><path class="cls-1" d="m25.91,91.96c0-.25,0-.5.05-.75-.04.24-.06.49-.05.75Z"/><path class="cls-1" d="m25.91,91.96c.06,1.65,1.22,3.38,3.11,3.3-1.89.08-3.04-1.66-3.11-3.3Z"/><path class="cls-1" d="m29.09,91.61c.05-.3.1-.51.18-.67-.15.2-.2.43-.18.67Z"/><path class="cls-1" d="m77.73,96.56c-.07.06-.04.16.03.23-.08-.07-.11-.18-.03-.23Z"/><path class="cls-1" d="m81.54,96.69c-1.11-.01-2.21-.01-3.32.01,1.1.03,2.21,0,3.32-.01Z"/><path class="cls-1" d="m82.21,88.51c.05,1.39-1.11,3.44-1.21,4.71-.05.49-.2.9-.42,1.26.22-.36.37-.77.42-1.26.1-1.27,1.26-3.32,1.21-4.71Z"/><path class="cls-1" d="m137.34,96.91c.61-.01,1.23-.03,1.84-.04-.61.01-1.23.03-1.84.04,0,0,0,0,0,0Z"/><path class="cls-1" d="m94.15,96.84c.2,0,.41,0,.61,0-.17-.04-.39-.02-.61,0Z"/><path class="cls-1" d="m60.8,87.19c-2.62.05-5.31-.18-7.63-.08,2.32-.1,5.01.13,7.63.08.82.04,1.29.29,1.54.68-.25-.38-.72-.64-1.54-.68Z"/><path class="cls-1" d="m62.51,88.32c.27,1.23-.76,3.19-.94,4.42.18-1.23,1.21-3.18.94-4.42Z"/><path class="cls-1" d="m80.23,87.01c-2.57-.01-5.17-.19-7.42-.04,2.25-.15,4.85.03,7.42.04.96.03,1.5.3,1.77.73-.27-.43-.81-.7-1.77-.73Z"/><path class="cls-1" d="m47.39,96.45c-.82-3.23-.73-5.36-.01-6.76-.72,1.4-.8,3.53.01,6.76Z"/><path class="cls-1" d="m106.43,96.83c.12.02.24.03.35.05.07,0,.15,0,.22.01.05,0,.1,0,.15,0-.24,0-.48-.02-.72-.06h0Z"/><path class="cls-1" d="m66.9,96.35c-.74-3.03-.66-5.11.02-6.52-.68,1.41-.77,3.49-.02,6.52Z"/><path class="cls-1" d="m86.52,96.78c.28.02.56.05.84.08.08,0,.17,0,.25,0-.04.08-.09.12-.13.12.04,0,.08-.04.13-.12.39,0,.79,0,1.18,0,.09,0,.17,0,.26,0-.04.08-.08.12-.13.12.04,0,.09-.04.13-.12.15,0,.31,0,.46,0,.08,0,.17,0,.25,0-.04.08-.08.13-.12.13.04,0,.08-.04.12-.13.16,0,.31,0,.47,0,.08,0,.16,0,.24,0-.02.04-.04.07-.06.09.02-.02.04-.05.06-.09.16,0,.32,0,.48,0,.08,0,.15,0,.23,0-.04.08-.07.13-.11.13.04,0,.08-.05.11-.13.78,0,1.56-.01,2.34-.02-2.34.05-4.68,0-7.01-.06Z"/><path class="cls-1" d="m114.8,96.95c.2,0,.4,0,.61,0-.17,0-.33,0-.5-.01-.04,0-.07,0-.11,0Z"/><path class="cls-1" d="m115.65,96.93h0c.15,0,.3.01.45.02.04,0,.08,0,.13,0-.19,0-.39,0-.58-.02Z"/><path class="cls-1" d="m126.58,96.93c1.93.15,3.88.11,5.83.06-1.96.03-3.92.05-5.83-.06Z"/><path class="cls-1" d="m109.17,96.9h.18s.06-.04.06-.04c-.08.03-.16.03-.24.04Z"/><path class="cls-1" d="m113.1,96.94s.09,0,.13,0c.02,0,.05,0,.07,0-.07,0-.14,0-.21,0Z"/><path class="cls-1" d="m108.44,96.91c.13,0,.26,0,.39,0-.19-.02-.39-.04-.58-.04.06.01.13.02.19.05Z"/><path class="cls-1" d="m109.49,96.9c.3,0,.59.01.89.02.08,0,.15,0,.23,0h0,0c.16,0,.32,0,.48.01.08,0,.16,0,.24,0h0,0c.16,0,.31,0,.47.01.05,0,.1,0,.15,0-.82,0-1.64-.01-2.47-.03Z"/><path class="cls-1" d="m112.34,96.93c.06,0,.12,0,.18,0,.02,0,.04,0,.06,0-.08,0-.16,0-.24,0Z"/><path class="cls-1" d="m317.93,35.18c.64.93,2.02,1.63,3.47,1.94-1.31-.29-2.38-1.02-3.49-1.97,0,.01.01.02.02.03Z"/><path class="cls-1" d="m23.18,58.72c-.19.24-.56.44-.86.65.31-.21.68-.41.86-.65Z"/><path class="cls-1" d="m21.84,60s0,0,0,0c.03.16.1.26.2.33-.1-.07-.17-.17-.2-.33,0,0,0,0,0,0Z"/><path class="cls-1" d="m339.81,56.82h0c-.6-.4-1.33-1.09-1.44-1.19-.11-.11-.22-.21-.34-.31.11.11.23.21.34.32.11.1.84.79,1.44,1.19Z"/><path class="cls-1" d="m181.28,44.64c-26.06-.05-52.12-.11-78.18-.27-9.16-.02-18.32-.03-27.48-.04,9.16,0,18.32.02,27.48.04,26.06.15,52.12.22,78.18.27Z"/><path class="cls-1" d="m191.46,47.66c25.11-1.45,50.54.06,75.78-.11,4.52.11,9.03.1,13.53.04-4.51-.01-9.02-.04-13.53-.04-25.25.18-50.67-1.34-75.78.12Z"/><path class="cls-1" d="m98.88,59.08c14.43-.75,28.84-1.79,43.19-3.27,10.94-3.32,22.01-5.43,33.17-6.75-11.15,1.32-22.22,3.42-33.17,6.75-14.35,1.48-28.76,2.52-43.19,3.27Z"/><path class="cls-1" d="m336.96,44.51s0,0,0,0c-2.45-7.41-4.63-14.96-7-22.44,2.36,7.48,3.91,15.27,7,22.44,0,0,0,0,0,0Z"/><path class="cls-1" d="m320.84,42.66c.98,0,1.96.02,2.94.02-.96-.08-1.95-.06-2.94-.02Z"/><path class="cls-1" d="m43.9,35.14c.33.74.78,1.44,1.21,2.16-.3-.73-.61-1.44-1.08-1.95-.05-.07-.08-.14-.12-.21Z"/><path class="cls-1" d="m43.22,28.68s0,0,0,0c.2.65.26,1.31.27,1.98.01-.67-.03-1.34-.26-1.98,0,0,0,0,0,0Z"/><path class="cls-1" d="m46.21,39.39c.59.88,1.61.9,2.64.84-.38,0-.75,0-1.13,0-.67-.07-1.14-.39-1.51-.83Z"/><path class="cls-1" d="m339.03,55.05c-1.39-1.81-2.94-3.51-4.59-5.11,1.62,1.7,3.14,3.47,4.59,5.11Z"/><path class="cls-1" d="m324.49,42.76c1.04.36,2.05.83,3.01,1.39-.5-.37-1.01-.73-1.52-1.08-.49-.15-.99-.24-1.49-.31Z"/><path class="cls-1" d="m221.7,2.58c-35.08,0-70.17.15-105.22-.19-.03,0-.07,0-.1,0h.1c35.04.35,70.14.19,105.22.19Z"/><path class="cls-1" d="m51.42,29.87s-.03.1-.05.14c-.02.04-.04.07-.06.11.02-.04.03-.07.06-.11.02-.05.03-.1.05-.14Z"/><path class="cls-1" d="m54.76,36.84c2.57.03,5.14.05,7.72.07-2.57-.02-5.14-.04-7.72-.07h0Z"/><path class="cls-1" d="m40.66,17.52c-1.54-.02-.64,2.59.51,5.33-1.14-3.38-1.39-4.81-.51-5.33Z"/><path class="cls-1" d="m205.02,38.7c1.12.07,1.9.03,2.36-.06-.44.06-1.18.09-2.36.06Z"/><path class="cls-1" d="m55.89,29.49c-1.13-1.63-2.25-3.23-3.85-3.9h0c1.6.67,2.72,2.27,3.85,3.9Z"/><path class="cls-1" d="m61.13,2.28c10.19.07,20.38.08,30.57.07-10.2-.08-20.4-.16-30.57-.07Z"/><path class="cls-1" d="m206.56,38.03c.71.09,1.21.24,1.28.38,0-.14-.43-.29-1.28-.38Z"/><path class="cls-1" d="m110.43,35.2c6.87.25,13.73.46,20.6.64-6.87-.19-13.73-.4-20.6-.64-16.4-.3-32.78-.93-49.17-1.27-.37-.03-.71-.12-1.03-.23.33.11.66.2,1.03.23,16.4.34,32.78.97,49.17,1.27Z"/><path class="cls-1" d="m275.27,42.21c2.69,0,5.38.02,8.07.04-9.81-.1-19.61-.18-29.42-.25,7.12.06,14.23.13,21.35.21Z"/><path class="cls-1" d="m203.32,41.62c-20.9-.17-41.8-.36-62.7-.56,20.9.25,41.8.41,62.7.56Z"/><path class="cls-1" d="m54.43,17.39c-2.8.03-5.59.05-8.39.08,2.14.13,4.91.22,8.39-.08Z"/><path class="cls-1" d="m31.67,26.82c.1.01.2.03.31.06-.1-.03-.21-.05-.3-.06-.8-.24-2.86-.32-4.09.11,1.23-.43,3.28-.34,4.09-.11Z"/><path class="cls-1" d="m47.97,14.26c65.4.07,130.78.08,196.18.11-65.4-.03-130.78-.04-196.18-.11Z"/><path class="cls-1" d="m13.96,45.29s0,0,0,0c-1.63-3.17-2.7-7.02-3.62-10.95.92,3.94,1.99,7.79,3.62,10.96Z"/><path class="cls-1" d="m327.95,15.3c.57,2.23.93,4.62,1.92,6.55-.97-1.92-1.34-4.31-1.92-6.55Z"/><path class="cls-1" d="m7.29,8.41c-.09,2.86.2,5.73.68,8.59-.48-2.86-.77-5.73-.68-8.59Z"/><path class="cls-1" d="m5.33,11.06c.13,1.22.3,2.42.5,3.62-.2-1.2-.38-2.41-.5-3.62Z"/><path class="cls-1" d="m314.6,5.91c3.33.82,6.59,1.82,9.54,3.44-2.95-1.63-6.2-2.63-9.54-3.44Z"/><path class="cls-1" d="m305.01,7.72c1.01,1.33,1.88,2.95,3.25,3.81.06.05.11.1.16.15-1.35-1.77-2.43-3.04-3.41-3.96Z"/><path class="cls-1" d="m310.39,14.33s0,0,0,0c-7.09.17-14.24.33-21.42.48,7.55.14,14.95.15,21.42-.48Z"/><path class="cls-1" d="m294.3,5.56c2.18.01,4.36.03,6.53.04-1.61-.24-3.58-.09-6.53-.04Z"/><path class="cls-1" d="m170.64,4.9c17.1.07,34.19.13,51.29.19-2.48-.01-4.97-.03-7.45-.05-14.61-.02-29.22-.08-43.84-.14Z"/><path class="cls-1" d="m249.58,15.84c5.34-.13,16.54-.45,16.56-.57-12.98.23-26.06.44-39.2.62,7.55-.05,15.09-.08,22.64-.05Z"/><path class="cls-1" d="m180.27,16.41c-24.69.22-49.41.37-73.88.46-10.46.1-20.91.21-31.37.32,32.25-.28,64.5-.49,96.75-.67,2.83-.03,5.67-.07,8.5-.11Z"/><path class="cls-1" d="m39.18,12.92c.2.22.5.4.82.56-.21-.14-.42-.28-.62-.44-.07-.04-.13-.08-.19-.13Z"/><path class="cls-1" d="m75.42,15.1c31.39.54,63,.44,94.55.13-31.51.06-63.05-.14-94.55-.13Z"/><path class="cls-1" d="m42.62,5.18c-1.11.77-2.03,1.75-2.58,3.18.56-1.32,1.47-2.35,2.58-3.18Z"/><path class="cls-1" d="m47.97,14.26c-1.44.06-2.48-.18-3.19-.62.88.66,1.97.62,3.19.62Z"/><path class="cls-1" d="m43.67,12.19c-.23-.86-.01-1.89.54-2.92-.6,1.07-.88,2.11-.54,2.92Z"/><path class="cls-1" d="m45.07,8.02c.46-.56,1.01-1.09,1.65-1.57.58-.37,1.07-.91,1.61-1.35-1.15.71-2.34,1.77-3.25,2.93Z"/><path class="cls-1" d="m319.17,45.18c2.38.36,4.66,1.03,6.84,1.95-2.19-.92-4.46-1.59-6.84-1.95Z"/><path class="cls-1" d="m43.71,2.03c-.05-.25-.79-.21-1.68-.1.89-.1,1.62-.15,1.68.1Z"/><path class="cls-1" d="m31.88,16.6c-.19-1.16.08-1.46,1.44-1.54-1.37.08-1.64.37-1.44,1.54Z"/><path class="cls-1" d="m38.9,2.01c-3.48,1.07-6.46,1.79-9,2.38,2.54-.59,5.52-1.31,9-2.38Z"/><path class="cls-1" d="m17.8,26.51s0,0,0,0c-.04-.01-.08-.04-.12-.06.04.02.08.05.12.06Z"/><path class="cls-1" d="m27,51.25s.03-.02.04-.03c2.23-1.59,4.67-2.91,7.16-4.13-2.5,1.21-4.94,2.53-7.16,4.12-.01,0-.02.02-.04.03Z"/><path class="cls-1" d="m16.96,25.75c-.32-.54-.52-1.24-.66-1.83.14.59.33,1.3.66,1.83Z"/><path class="cls-1" d="m20.75,57.58c.96-.19,2.38-1.8,3.66-3.36-1.29,1.55-2.71,3.14-3.66,3.36Z"/><path class="cls-1" d="m33.47,23.21c.22.33.43.6.64.81-.21-.22-.42-.48-.64-.81Z"/><path class="cls-1" d="m37.39,26.85c-.48-1.04-1.01-1.41-1.59-1.72.58.31,1.12.68,1.59,1.72Z"/><path class="cls-1" d="m33.89,36.06c.05,2.02.16,3.34.39,4.23-.23-.89-.33-2.21-.39-4.23-.54-1.8,1.35-2.6,2.82-3.6-1.47.99-3.36,1.8-2.82,3.6Z"/><path class="cls-1" d="m36.83,32.39c.89-.62,1.59-1.32,1.43-2.39-.08-.46-.17-.87-.26-1.25.09.37.18.78.26,1.25.16,1.07-.54,1.77-1.43,2.39Z"/><path class="cls-1" d="m15.73,39.68c1.3,5.63,2.58,11.26,3.99,16.85,0,0,0,0,0,0,0,0,0,0,0,0-1.41-5.59-2.69-11.23-3.99-16.86Z"/><path class="cls-1" d="m29.49,35.04c1.26.03,2.43-.16,3.24-.62.04-.05.09-.08.13-.12-.04.04-.09.08-.13.12-.81.46-1.98.65-3.24.62Z"/><path class="cls-1" d="m25.09,29.85c-.09.15.19.61.61,1.14-.42-.52-.7-.98-.61-1.14Z"/><path class="cls-1" d="m35.16,31.06c.18-.77-.29-1.79-1-2.63.71.84,1.17,1.86,1,2.63Z"/><path class="cls-1" d="m34.94,33.07c.26-.3.35-.83.21-2.01.14,1.18.04,1.71-.21,2.01Z"/><path class="cls-1" d="m25.1,29.84s0,0,0,0c.23-.17.49-.2.78-.16-.29-.04-.55,0-.78.16Z"/><path class="cls-1" d="m9.99,9.04s0-.02,0-.02c0,0,0,.01,0,.02.47,3.37-.23,6.82.6,10.17-.83-3.35-.13-6.79-.6-10.17Z"/><path class="cls-1" d="m27.86,32.94c.27-.12.68-.57.93-1.04-.25.46-.66.92-.93,1.04Z"/><path class="cls-1" d="m326.35,34.86s0-.02,0-.03c0,.03,0,.06,0,.09,0-.02,0-.04.01-.07Z"/><path class="cls-1" d="m17.4,13.13c.42-3,1.47-4.72,3.32-5.88-1.86,1.16-2.9,2.87-3.32,5.88Z"/><path class="cls-1" d="m320.56,30.14c-.3-.18-.69-.24-1.22-.12.49-.08.89-.04,1.22.12Z"/><path class="cls-1" d="m321.88,34.74c-.06.02-.11.05-.18.07.07-.02.12-.04.18-.07Z"/><path class="cls-1" d="m318.63,29.99c.24,0,.5.05.71.03-.27-.08-.5-.07-.71-.03Z"/><path class="cls-1" d="m321.8,32.23c-.15-.34-.29-.7-.43-1.02.01.04.03.06.04.1.05.28.21.59.4.92Z"/><path class="cls-1" d="m320.65,32.08c-.34-.49-.97-1.04-1.49-1.26.52.23,1.16.78,1.49,1.26Z"/><path class="cls-1" d="m324.82,31.15c-.82-1.3-1.93-2.41-3.3-2.95,1.19.6,2.39,1.71,3.3,2.95Z"/><path class="cls-1" d="m317.52,32.14c.02.18.05.36.09.53.07.58.61,1.13,1.3,1.53-.72-.5-1.26-1.24-1.39-2.06Z"/><path class="cls-1" d="m101.7,87.9c-.24-.66-.85-1.08-2.1-1.08.96.18,1.72.51,2.1,1.08Z"/><path class="cls-1" d="m322.2,37.23c1.04.11,2.05.01,2.82-.37-.1.04-.2.08-.32.11-.94.24-1.76.32-2.5.26Z"/><path class="cls-1" d="m315.43,32.82c.12.15.26.29.41.42-.29-.42-.5-.88-.61-1.35.04.31.11.62.2.92Z"/><path class="cls-1" d="m36.31,42.12c1.13.19,2.78.19,5.2.8-2.43-.61-4.08-.61-5.2-.8Z"/><path class="cls-1" d="m322.35,33.16s-.04-.06-.06-.08c.03.06.06.11.08.17-.01-.03-.01-.05-.02-.09Z"/><path class="cls-1" d="m318.38,30.95s-.02.02-.02.03c-.05.15-.08.29-.09.43.02-.14.05-.28.09-.43,0-.02.01-.02.02-.03Z"/><path class="cls-1" d="m17.7,5.01c2.8-.86,5.78-1.55,8.78-2.05-3,.5-5.98,1.19-8.78,2.05Z"/><path class="cls-1" d="m48.1,2.5c-.27.14-.55.26-.84.39.42-.14.83-.27,1.24-.4-.14,0-.27,0-.41,0Z"/><path class="cls-1" d="m10.79,7.84c.49-.34,1.09-.61,1.48-.84-.41.2-1,.49-1.48.84Z"/><path class="cls-1" d="m349.62,76.66c.29.13.54.19.77.19-.23,0-.48-.06-.77-.19Z"/><path class="cls-1" d="m147.1,87.37c-.65.48-1.17,1.17-1.48,2.13-.12.43-.23.83-.32,1.21.09-.38.2-.78.32-1.21.31-.97.82-1.65,1.47-2.14Z"/><path class="cls-1" d="m333.37,88.91c-.12-.15-.26-.3-.44-.42-.07-.05-.14-.1-.21-.14.07.05.14.09.21.15.18.13.32.27.44.42Z"/><path class="cls-1" d="m177.73,86.35c-2.24.02-4.91-.41-7.3-.23,2.38-.18,5.05.25,7.3.23Z"/><path class="cls-1" d="m325.63,92.21c.22.68.64,1.39,1.31,2.09,0,0,0-.01,0-.01-.67-.7-1.09-1.41-1.31-2.08Z"/><path class="cls-1" d="m198.11,94.4c-1.08.95-2.41,1.26-3.8,1.34,1.4-.08,2.72-.39,3.8-1.34Z"/><path class="cls-1" d="m326.94,94.31c.1-.01.2-.02.3-.03-.1,0-.21.01-.3.03h0Z"/><path class="cls-1" d="m328.18,94.24c1.28,0,2.65.13,3.74-.44,0,0,0,0,0,0-1.09.57-2.46.45-3.74.44Z"/><path class="cls-1" d="m127.96,87.27c-.35.12-.68.25-.92.39,0,0,0,0,0,0,0,0,0,0,0,0,.24-.14.56-.27.92-.39Z"/><path class="cls-1" d="m184.2,93.56c.15,1.78,1.55,2.3,5.44,2.08-3.89.21-5.29-.3-5.44-2.08Z"/><path class="cls-1" d="m188.47,86.26c-1.36.28-2.53.87-3.32,2.04-.1.39-.19.75-.28,1.11.09-.35.18-.72.28-1.11.79-1.17,1.96-1.76,3.32-2.04Z"/><path class="cls-1" d="m125.95,89.65c-.36.93-.6,1.97-.66,2.98.05-.24.11-.49.2-.77.24-.66.31-1.46.46-2.21Z"/><path class="cls-1" d="m197.1,86.23c-2.56.13-5.81-.47-8.42,0,2.61-.47,5.86.13,8.42,0Z"/><path class="cls-1" d="m326.52,88.62c.75-.73,1.83-1.2,3.02-1.24-1.18.04-2.26.51-3.02,1.24Z"/><path class="cls-1" d="m331.84,90.91s.08-.08.11-.14c.05-.22,0-.4-.08-.56.1.23.09.49-.03.7Z"/><path class="cls-1" d="m330.16,91.21c.31.1.61.15.89.13-.1,0-.2,0-.32-.04-.2-.01-.39-.04-.57-.09Z"/><path class="cls-1" d="m333.64,90.84c-.28,1.12-1.08,2.28-1.72,2.96.64-.68,1.44-1.84,1.72-2.96Z"/><path class="cls-1" d="m125.73,95.47c.77.82,1.92.84,3.12.75-1.35-.01-2.53-.19-3.18-.91.02.05.03.12.06.17Z"/><path class="cls-1" d="m353.85,82.52c.18-.13.29-.31.37-.51-.46.4-.98.7-1.55.94.4-.13.79-.27,1.18-.44Z"/><path class="cls-1" d="m180.47,88.88c-.23,1.57-1.21,3.48-1.41,4.74.2-1.27,1.18-3.18,1.41-4.74Z"/><path class="cls-1" d="m167.42,86.84c-.73.36-1.37.87-1.89,1.59-.1.41-.19.8-.28,1.17.09-.37.18-.76.28-1.17.52-.72,1.16-1.23,1.89-1.59Z"/><path class="cls-1" d="m120.31,93.57c.12-1.54,1.5-4.03,1.18-5.55.32,1.52-1.06,4.02-1.18,5.55Z"/><path class="cls-1" d="m346.77,84.32c-1.38.34-2.69.84-3.72,1.83,1.13-.93,2.4-1.46,3.72-1.83Z"/><path class="cls-1" d="m141.38,87.97c-.7-1.08-2.73-1.57-5.07-1.69,2.34.12,4.37.61,5.07,1.69Z"/><path class="cls-1" d="m237.73,85.81c-.94-.23-2.34-.27-4.32-.1,1.98-.15,3.38-.12,4.32.1Z"/><path class="cls-1" d="m231.43,85.72c-2.47-.03-5.09.01-6.78,1.92,1.69-1.9,4.32-1.95,6.78-1.92Z"/><path class="cls-1" d="m243.22,93.77c.54,1.17,2.08,1.47,4.14,1.52-2.06-.06-3.6-.35-4.14-1.52Z"/><path class="cls-1" d="m158.95,94.52c-.95,1.01-2.15,1.41-3.43,1.56,1.29-.15,2.48-.55,3.43-1.56Z"/><path class="cls-1" d="m254.97,85.33c2.79.21,4.88,1.04,4.16,2.99.72-1.95-1.38-2.78-4.16-2.99Z"/><path class="cls-1" d="m210.07,95.55c2.84-.13,7.27.75,8.47-2.61,0-1.34,1.26-3.5,1.37-5.04-.11,1.55-1.38,3.71-1.37,5.04-1.21,3.36-5.63,2.47-8.47,2.61Z"/><path class="cls-1" d="m157.98,86.52c-2.28.16-5.26-.39-7.77-.16,2.51-.23,5.49.32,7.77.16Z"/><path class="cls-1" d="m145.24,94.87c.8,1.45,3.11,1.28,6.79,1.25-3.68.03-5.99.21-6.79-1.25Z"/><path class="cls-1" d="m245.24,86.65s0,0,0,0c.02-.01.05-.03.08-.04-.02.01-.05.03-.08.04Z"/><path class="cls-1" d="m258.98,88.77c-.42,1.17-.68,2.45-1.11,3.57.43-1.12.7-2.4,1.11-3.57Z"/><path class="cls-1" d="m239.26,89.06c-.29,1.25-.89,2.85-1.49,4.82.61-1.96,1.21-3.56,1.49-4.82Z"/><path class="cls-1" d="m232.14,95.48c-1.78-.02-3.62-.25-5.36-.2,1.74-.06,3.58.18,5.36.2Z"/><path class="cls-1" d="m223.52,93.06c-.03-1.72.91-4.02,1.12-5.42-.21,1.39-1.15,3.69-1.12,5.42Z"/><path class="cls-1" d="m275.96,85.48c-2.38.21-5.66-.39-8.3,0,2.64-.39,5.92.21,8.3,0Z"/><path class="cls-1" d="m210.78,85.85c1.99.02,4.1.29,5.85.3-1.74-.01-3.86-.28-5.85-.3Z"/><path class="cls-1" d="m292.25,94.75c.62,0,1.18.02,1.63.13.25-.01.48-.05.7-.11-.22.05-.45.09-.7.1-.45-.11-1.01-.14-1.63-.13Z"/><path class="cls-1" d="m265.43,86.18c-.95.55-1.66,1.44-1.97,2.84-.08.29-.14.56-.2.83.06-.27.12-.53.2-.83.3-1.4,1.01-2.29,1.97-2.84Z"/><path class="cls-1" d="m289.12,85.28c.76,0,1.6.03,2.53.11-.93-.09-1.76-.12-2.53-.11Z"/><path class="cls-1" d="m282.43,93.11c.53,1.93,2.96,2.09,5.56,1.94-2.6.16-5.03,0-5.56-1.94Z"/><path class="cls-1" d="m200.14,88.13c-.05,1.7-1.29,4.08-1.48,5.56.19-1.49,1.44-3.87,1.48-5.56Z"/><path class="cls-1" d="m131.63,96.28c2.83.03,6.95.47,8.16-2.45-1.21,2.93-5.33,2.48-8.16,2.45Z"/><path class="cls-1" d="m140.69,90.51c.33-.86.66-1.71.72-2.5,0,0,0,0,0,0-.06.8-.39,1.64-.72,2.5Z"/><path class="cls-1" d="m263.16,93.86c.67,1.39,2.64,1.39,6.08,1.19-3.43.2-5.4.2-6.08-1.19Z"/><path class="cls-1" d="m276.86,85.47c3.94.39.68,4.96.57,7.44-1.64,2.78-5.41,2.05-8.2,2.16,2.79-.1,6.56.63,8.2-2.16.11-2.47,3.37-7.06-.57-7.44Z"/><path class="cls-1" d="m204.01,94.03c.51,1.41,2.07,1.79,4.81,1.65-2.74.14-4.3-.24-4.81-1.65Z"/><path class="cls-1" d="m160.89,88.56c-.14,1.66-1.35,3.91-1.56,5.35.22-1.45,1.43-3.69,1.56-5.35Z"/><path class="cls-1" d="m205.16,87.76c-.28.39-.5.84-.63,1.4-.1.33-.19.64-.27.94.08-.3.17-.61.27-.94.13-.56.36-1.01.63-1.4Z"/><path class="cls-1" d="m282.54,91.09c.31-1.63.76-2.87,1.42-3.76-.66.89-1.11,2.13-1.42,3.76Z"/><path class="cls-1" d="m354.17,79.79c.02.53.06,1.15.15,1.89.1-.55-.01-1.22-.15-1.89Z"/><path class="cls-1" d="m120.4,86.87c.26.09.49.19.65.34-.16-.15-.39-.25-.65-.34Z"/><path class="cls-1" d="m341.23,83.84c-.02-2.54.47-5.96.58-6.69-.11.74-.6,4.15-.58,6.69Z"/><path class="cls-1" d="m118.5,86.81c-2.16.12-4.84-.36-7.18-.23,2.34-.13,5.02.35,7.18.23Z"/><path class="cls-1" d="m164.59,93.55c.04,1.48.81,2.11,2.96,2.23-2.15-.11-2.92-.75-2.96-2.23Z"/><path class="cls-1" d="m170.91,95.82c2.58-.16,6.32.66,7.9-1.7-1.58,2.35-5.32,1.54-7.9,1.7Z"/><path class="cls-1" d="m343.84,80.14c-.16,2.01-.65,2.79-1.47-.43.82,3.23,1.32,2.45,1.47.43Z"/><path class="cls-1" d="m368,82.51c.32-.98.39-2.14.36-3.14.03,1-.04,2.16-.36,3.14Z"/><path class="cls-1" d="m364.55,84.63c.06.01.13.03.19.04.07,0,.13,0,.2.01-.07,0-.13,0-.2-.01-.06-.02-.13-.03-.19-.04Z"/><path class="cls-1" d="m108.07,87.44c-.68.42-1.24,1.03-1.64,1.89-.08.34-.15.65-.22.96.07-.31.14-.62.22-.96.4-.86.96-1.47,1.64-1.89Z"/><path class="cls-1" d="m358.06,82.39c.36.56.95.95,1.65,1.23-.7-.28-1.28-.66-1.65-1.23Z"/><path class="cls-1" d="m94.14,86.81c-1.68-.09-3.38-.11-4.76.3.21-.03.43-.06.66-.06.84.07,2.39-.1,4.1-.24Z"/><path class="cls-1" d="m86.19,95.08s0,0,0,0c.08,1.19.92,1.5,1.99,1.52-1.07-.02-1.91-.33-1.99-1.52Z"/><path class="cls-1" d="m357.72,85.77c-.31.15-.27.5-.07.89-.2-.39-.24-.74.07-.89Z"/><path class="cls-1" d="m98.09,96.12c.93-.31,1.77-.85,2.42-1.8.04-.34.12-.72.22-1.11-.63,1.54-1.39,2.43-2.64,2.91Z"/><path class="cls-1" d="m366.99,73.79c-.65-.55-1.52-.38-2.66.18,1.13-.56,2.01-.73,2.66-.18Z"/><path class="cls-1" d="m357.63,80.37c-.07-.84-.22-1.47-.28-1.95.06.48.21,1.11.28,1.95Z"/><path class="cls-1" d="m353.94,78.05c0-.06,0-.13,0-.18-.16-.64-.75-.74-1.43-.75.83.19,1.23.47,1.43.93Z"/><path class="cls-1" d="m343.24,73s0,0,0,0c0,0,0,0,0-.01,0,0,0,0,0,.01Z"/><path class="cls-1" d="m111.96,96.36c2.91-.07,7,.68,8.29-2.64-1.3,3.32-5.38,2.57-8.29,2.64Z"/><path class="cls-1" d="m105.74,94.57c.35,1.75,2.05,2.08,6.22,1.75-4.17.33-5.87,0-6.22-1.75Z"/><path class="cls-1" d="m344.72,73.13c.44.29.95.68,1.49,1.11-.53-.43-1.04-.82-1.49-1.11Z"/><path class="cls-3" d="m339.22,80.54s-.06-.07-.1-.1c0,0-.01,0-.02-.01-.37-.28-.89-.34-1.49-.29-.1,0-.2.02-.3.03,0,0,0,0,0,0-.58.08-1.25.23-2,.38-.33.07-.66.13-.99.18-.06,0-.12.01-.18.02-8.63,1.07-17.34,1.41-26.09,1.47-11.35.14-22.76-.15-34.13-.1-2.72.05-5.44.12-8.15.25-25.25.42-50.54.53-75.83.66-31.92.27-63.82.63-95.66,1.35-1.13.03-14.18-.21-15.39-.19-5.87.41-18.79,1.21-23.84,1.29-3.91.13-7.83.27-11.74.42-.37.09-.74.07-1.12.01-.18,0-.36,0-.54,0-2.15,0-4.3,0-6.45,0-1.35,0-2.71,0-4.06,0-.5,0-1.01,0-1.51,0-.12.04-.23.1-.34.15-.84.37-1.5,1.04-2.17,1.7-.59.59-1.2,1.16-1.98,1.48-.27.24-.48.53-.66.84-.36.61-.6,1.33-.8,2.08-.15.57-.28,1.15-.43,1.71-.16.56-.34,1.1-.6,1.58-.08.37.05.62.31.8.43.22,1.2.3,2.09.31,1.43-.04,3.12-.29,4.03-.18.19,0,.37-.01.54-.02.01,0,.03,0,.04,0,.35,0,.63,0,.81.05.06-.08.12-.08.18,0,.47,0,.93,0,1.4.01.07-.08.13-.06.18.01.27-.03.53-.07.8-.1.14-.11.28-.12.42,0h0c.27.02.53.04.8.07.04-.09.08-.1.12,0h13.01c-.82-3.23-.73-5.36-.01-6.76.04-.09.1-.16.15-.25.04-.06.07-.13.11-.19,1.07-1.56,3.1-2.03,5.54-2.14,2.32-.1,5.01.13,7.63.08.82.04,1.29.29,1.54.68.04.07.07.15.1.22.01.03.03.06.04.09.01.04.02.09.03.14.27,1.23-.76,3.19-.94,4.42-.34,1.26-.57,2.6-2.01,3.21-.22.09-.53.26-.57.61h4.89c.1,0,.21,0,.31,0,.39-.04.78,0,1.16.05.52,0,1.04.01,1.57,0,0,0,.01-.05.01-.05-.02-.07-.03-.14-.05-.2-.74-3.03-.66-5.11.02-6.52.05-.1.11-.19.16-.29.03-.05.06-.11.09-.17,1.07-1.67,3.13-2.24,5.63-2.41,2.25-.15,4.85.02,7.42.04.96.03,1.5.3,1.77.73.06.09.1.2.13.31,0,.01.01.03.02.04.02.08.03.17.04.26,0,.04.02.09.02.13,0,0,0,.02,0,.03.06,1.39-1.11,3.44-1.21,4.71-.05.49-.2.9-.42,1.26-.07.12-.15.23-.24.34-.57.72-1.42,1.22-2.23,1.73.04.05.08.11.11.16,1.11-.03,2.21-.02,3.32-.01,1.66-.03,3.32-.05,4.98.09,2.34.06,4.67.11,7.01.06l.06-.04s.06.04.06.04c.16,0,.32,0,.48,0,.22-.02.44-.04.61,0,.01,0,.03,0,.04,0,.06-.03.1-.02.13,0,.64.05,1.28.07,1.93.07,1.77-.06,3.53-.17,5.3-.21,1.37-.05,2.73-.06,4.09.1.08-.07.14-.05.19.03.24.04.48.06.72.06.25,0,.5.01.75.02.12-.06.23-.07.35-.05.19,0,.39.02.58.04.11,0,.23,0,.34,0,.08,0,.17-.01.24-.04,0,0,.06.04.06.04,0,0,.01,0,.02,0,.82.02,1.64.03,2.47.03.03,0,.06,0,.1,0h0c.1,0,.19,0,.29,0,.08,0,.16,0,.24,0,.06,0,.13,0,.19,0,0,0,0,0,0,0,.11,0,.23,0,.34.01.07,0,.14,0,.21,0,.06,0,.12,0,.17,0,0,0,0,0,0,0,.16,0,.31,0,.47.01.08-.08.15-.08.23,0h0c.17,0,.34,0,.51,0,.06-.1.13-.11.21,0,.17,0,.33,0,.5.01.07-.09.15-.09.24-.02.19.01.39.01.58.02.05,0,.09,0,.14,0h0,0c.16.01.32.03.47.04.07-.08.14-.07.22,0,.17-.01.34-.03.51-.04.06-.09.14-.1.23-.05.13-.02.25-.04.38-.06.08-.12.17-.15.27-.02,2.12,0,4.24-.02,6.36-.02.22-.14.43-.12.64.03.38.05.76.08,1.14.11,1.91.11,3.87.09,5.83.06,1.58-.04,3.17-.09,4.74-.03.04-.09.1-.11.19-.05.61-.01,1.23-.03,1.84-.04.1-.08.2-.07.3,0,.19,0,.38,0,.57,0,.05-.06.1-.06.16,0,.92,0,1.83,0,2.75,0l.05-.04s.05.04.05.04c.92,0,1.83.01,2.75.02.08-.06.15-.05.21.03h0c1.82.08,3.65.17,5.47.19s3.65,0,5.47-.14c2.86-.14,5.78-.19,8.71-.19,4.89,0,9.83.15,14.61.21.13,0,.25,0,.38,0,.05-.08.1-.07.14,0,.41,0,.81,0,1.22,0,.56-.02,1.11-.06,1.66-.07.28-.1.57-.1.85.03.14.01.29,0,.43.03,3.18-.23,6.54-.11,9.82,0,13.39,0,26.81.01,40.23.02,18.77,0,37.55,0,56.32-.09,11.06-.05,22.11-.13,33.15-.25.03,0,.06,0,.09,0,3.7.15,6.71.25,9.03-.15,4.83-.87,6.67-3.89,5.92-12.68,0,0,0-.02,0-.03.26-1.81.13-2.79-.3-3.28Zm-305.61,11.58s0,.1,0,.15c-.02.15-.07.29-.11.43-.02.07-.03.14-.05.21-.06.17-.15.33-.24.49-.02.04-.04.08-.06.12-.63.98-1.85,1.72-3.68,1.7-.15.03-.3.05-.45.05-1.89.08-3.04-1.66-3.11-3.3,0-.25,0-.5.05-.75.21-1.16,1.04-2.11,2.65-2.08,1.16-.28,2.11-.25,2.87-.03.02,0,.06,0,.08.02.51.16.93.42,1.25.74s.55.7.68,1.11c0,0,0,0,0,0,.06.18.09.37.11.55,0,.03.01.05.02.08.01.17,0,.33-.01.5Zm67.12,1.09c-.1.39-.19.77-.22,1.11-.65.94-1.48,1.49-2.42,1.8-.08.03-.17.06-.26.09,0,0-.02,0-.03,0-1.28.41-3.05.44-5.63.29v-.02c-1.03-.25-2.68.15-3.99.13-1.07-.02-1.91-.33-1.99-1.52,0,0,0,0,0,0-.04-.07-.09-.13-.14-.18-.22-.25-.48-.46-.3-.99.01-.04.02-.08.03-.12.03-.52.21-1.09.38-1.67.11-.61.21-1.21.34-1.79,0-.03,0-.06,0-.08.08-.41.2-.75.35-1.07.42-1.04,1.13-1.83,2.54-2.06,1.38-.41,3.08-.39,4.76-.3,1.87-.15,3.92-.27,5.46.01,1.25,0,1.86.42,2.1,1.08.21.31.31.7.26,1.18-.42,1.72-.79,3.08-1.23,4.13Zm19.58.36s0,.03,0,.04c-.02.04-.04.08-.05.12-1.3,3.32-5.39,2.57-8.29,2.64v-.05c-4.17.33-5.87,0-6.22-1.75,0-.04-.02-.07-.03-.11,0-.01,0-.03,0-.05-.14-.95.08-2.29.5-4.13.07-.31.14-.62.22-.96.4-.86.96-1.47,1.64-1.89.91-.56,2.03-.79,3.25-.86,2.34-.13,5.02.35,7.18.23.33-.02.66-.05.97-.1.38.01.67.08.94.16.26.09.49.19.65.34.02.01.02.03.04.05.09.09.17.18.23.28.05.08.07.17.11.26.02.04.04.08.05.13,0,.03,0,.06.01.09.32,1.52-1.06,4.02-1.18,5.55Zm20.38-3.06c-.3.8-.6,1.62-.65,2.44-.06.33-.15.61-.26.88-1.21,2.93-5.33,2.48-8.16,2.45v-.13c-.92.01-1.88.07-2.78.06-1.2.09-2.35.08-3.12-.75-.02-.05-.03-.11-.06-.17-.48-.53-.66-1.37-.38-2.67.06-1.02.3-2.05.66-2.98.16-.79.42-1.53,1.09-1.98,0,0,0,0,0,0,.24-.14.56-.27.92-.39,1.95-.68,5.39-1.14,8.35-.99,2.35.12,4.37.61,5.07,1.69,0,.01.02.02.03.04,0,0,0,0,0,0,0,0,0,0,0,0-.06.8-.39,1.64-.72,2.5Zm20.19-1.95c-.14,1.66-1.34,3.91-1.56,5.35,0,.07-.03.14-.03.2-.11.15-.23.28-.35.41-.95,1.01-2.15,1.41-3.43,1.56-1.12.13-2.32.06-3.48.03-3.69.03-5.99.2-6.79-1.25-.02-.04-.06-.08-.08-.12-.01-.02-.02-.05-.03-.08-.33-.81-.29-2.04.17-3.94.09-.38.2-.78.32-1.21.31-.97.82-1.65,1.48-2.13.84-.62,1.92-.9,3.11-1.01,2.51-.23,5.49.32,7.77.16.28-.02.55-.05.8-.09,1.77.06,2.21.94,2.11,2.13Zm19.58.33c-.23,1.57-1.2,3.48-1.41,4.74,0,.04-.02.08-.02.12-.07.14-.15.26-.23.37-1.58,2.35-5.32,1.54-7.9,1.7,0-.04,0-.09,0-.13-1.38.1-2.49.14-3.37.09-2.15-.11-2.92-.75-2.96-2.23-.03-.94.24-2.23.66-3.96.09-.37.18-.76.28-1.17.52-.72,1.16-1.23,1.89-1.59.9-.44,1.93-.64,3.01-.72,2.38-.18,5.05.25,7.3.23.36,0,.71-.01,1.04-.04,1.59.29,1.89,1.32,1.71,2.58Zm18.18,4.82c0,.06-.02.12-.03.18-.17.2-.34.37-.52.53-1.08.95-2.41,1.26-3.8,1.34-1.27.07-2.59-.04-3.84-.02,0-.04,0-.09,0-.13-.28.02-.55.04-.81.05-3.9.21-5.29-.3-5.44-2.08,0-.01,0-.03,0-.04,0-.05,0-.1,0-.15-.04-.96.24-2.25.67-3.96.09-.35.18-.72.28-1.11.79-1.17,1.96-1.76,3.32-2.04.07-.01.14-.02.21-.03,2.62-.47,5.86.13,8.42,0,.33-.02.66-.04.96-.09,1.62.08,2.1.89,2.07,2-.05,1.7-1.29,4.08-1.48,5.56Zm21.27-5.8c-.11,1.55-1.37,3.71-1.37,5.04-1.21,3.36-5.63,2.48-8.47,2.61,0,.01,0,.03,0,.04-.44.04-.85.07-1.25.09-2.74.14-4.31-.24-4.81-1.65-.32-.87-.23-2.14.25-3.94.08-.3.16-.61.27-.94.13-.56.36-1.01.63-1.4,1.11-1.58,3.26-1.93,5.62-1.91,1.99.02,4.1.29,5.85.3.57,0,1.1-.02,1.57-.09,1.41.14,1.79.87,1.72,1.83Zm19.35,1.16c-.28,1.26-.88,2.86-1.49,4.82,0,0,0,.02,0,.03-1.64,1.33-3.6,1.6-5.63,1.58-1.78-.02-3.62-.25-5.36-.2-.25,0-.5.02-.75.04h0c-.26,0-.49-.01-.7-.05-.02,0-.04,0-.05,0-1.32-.21-1.75-1.09-1.76-2.22-.03-1.72.91-4.02,1.12-5.42,0,0,0-.01,0-.02h0c1.69-1.9,4.32-1.95,6.78-1.92.57,0,1.12.02,1.66.01.11,0,.21-.02.32-.02,1.99-.16,3.38-.13,4.32.1,1.74.41,1.95,1.48,1.54,3.25Zm19.87-.74c-.02.06-.04.12-.06.18-.03.09-.07.18-.1.28-.41,1.17-.68,2.45-1.11,3.57-.58,1.51-1.48,2.74-3.49,3.04h0s0,0,0,0c-2.55-.19-5.03-.03-7.02-.08-2.06-.06-3.6-.35-4.14-1.52-.56-1.21-.05-3.35,2.02-7.12,0,0,0,0,0,0,.02-.01.05-.03.08-.04,1.26-.76,6.04-1.55,9.66-1.28,2.79.21,4.88,1.04,4.16,2.99Zm18.29,4.58c-1.63,2.78-5.41,2.05-8.2,2.16h0c-3.43.19-5.4.19-6.08-1.2-.39-.8-.34-2.06.1-4.01.06-.27.12-.53.2-.83.3-1.4,1.01-2.29,1.97-2.84.65-.37,1.41-.58,2.23-.71,2.64-.39,5.93.21,8.3,0,.17-.02.35-.03.51-.05.15,0,.26.02.39.04,3.94.38.68,4.96.57,7.44Zm20.88-4.65c-.9,2.3-.92,5.87-3.74,6.53-.22.05-.45.09-.7.11-.45-.11-1.01-.14-1.63-.13-1.26.02-2.78.2-4.26.29-2.6.16-5.03,0-5.56-1.94-.05-.18-.1-.36-.11-.57.06-.52.14-1,.23-1.45.3-1.63.75-2.87,1.42-3.76,1.08-1.45,2.72-2.02,5.17-2.05.76,0,1.6.03,2.53.11v-.02c1.51.11,4.47-.35,5.96.42.07.03.14.06.2.1.07.04.12.1.18.15.05.05.11.08.16.14.39.44.5,1.09.17,2.06Zm35.33,2.59c-.28,1.12-1.08,2.28-1.72,2.96,0,0,0,0,0,0,0,0,0,0,0,0-1.09.57-2.46.45-3.74.44-.32,0-.63.01-.94.04-.1,0-.2.01-.3.03h0c-.67-.71-1.1-1.41-1.31-2.09-.43-1.34-.07-2.57.75-3.45.01-.01.02-.02.03-.03.04-.04.07-.07.11-.11.75-.73,1.83-1.2,3.02-1.24.09,0,.19,0,.28,0,.04,0,.09,0,.13,0,.91.04,1.87.35,2.77.96.07.05.14.09.21.14.18.13.32.27.44.42.41.54.45,1.22.28,1.93Z"/><path class="cls-5" d="m117.79,96.89c.13-.02.25-.04.38-.06-.13.02-.25.04-.38.06h0Z"/><path class="cls-5" d="m118.44,96.81c2.12,0,4.24-.02,6.36-.02-2.12,0-4.24.02-6.36.02h0Z"/><polygon class="cls-5" points="254.38 95.38 254.38 95.38 254.38 95.38 254.38 95.38"/><path class="cls-5" d="m29.9,96.47c.19,0,.39-.01.58-.02-.17-.04-.46-.06-.81-.05.08,0,.15.02.23.07Z"/><path class="cls-5" d="m335.3,80.54c.75-.15,1.42-.3,2-.38-.62.08-1.3.24-2,.38Z"/><path class="cls-5" d="m33.46,96.38c.27.02.53.04.8.07-.27-.02-.53-.04-.8-.07h0Z"/><path class="cls-5" d="m273.91,82.12c-5,.02-9.99.11-14.97.33-22.99.22-46,.38-69.01.58,25.29-.13,50.58-.24,75.83-.66,2.71-.12,5.43-.2,8.15-.25Z"/><path class="cls-5" d="m291.33,96.92c-18.77.08-37.55.08-56.32.09,18.77,0,37.55,0,56.32-.09Z"/><path class="cls-5" d="m47.63,89.25c1.07-1.56,3.1-2.03,5.54-2.14-2.44.11-4.47.58-5.54,2.14Z"/><path class="cls-5" d="m25.05,96.6c-.89,0-1.66-.08-2.09-.31.42.28,1.2.33,2.09.31Z"/><path class="cls-5" d="m29.09,96.42c.12.01.22.03.31.06.08-.05.15-.07.23-.08-.17,0-.35,0-.54.02Z"/><path class="cls-5" d="m70.66,84.99c-5.21.15-10.41.32-15.61.5,5.05-.08,15.45-.45,15.61-.5Z"/><path class="cls-5" d="m42.2,85.91c-.18,0-.36,0-.54,0,.18,0,.36,0,.54,0,0,0,0,0,0,0Z"/><path class="cls-5" d="m94.27,84.38c-1.08.02-2.17.05-3.25.08-.05.01,2.12-.04,3.25-.08Z"/><path class="cls-5" d="m308.04,82.21c8.75-.06,17.47-.4,26.09-1.47-8.64.99-17.35,1.36-26.09,1.47Z"/><path class="cls-5" d="m29.63,85.94c-.12.04-.23.1-.34.15.11-.05.22-.11.34-.15h0Z"/><path class="cls-5" d="m82.88,84.65c-1.65.04-4.18.18-3.81.19,1.21-.03,3.75-.16,3.81-.19Z"/><path class="cls-5" d="m27.11,87.79c-.59.59-1.2,1.16-1.98,1.48-.27.24-.48.53-.66.84.18-.31.39-.6.66-.84.78-.33,1.39-.9,1.98-1.48Z"/><path class="cls-5" d="m81.54,96.69c1.66.01,3.32.05,4.98.09-1.66-.14-3.32-.12-4.98-.09Z"/><path class="cls-5" d="m62.06,96.55c.62.01,1.24.02,1.86.03,0-.01-.02-.02-.02-.03h-1.84Z"/><path class="cls-5" d="m112.75,96.94c.12,0,.23,0,.35,0-.11,0-.23,0-.34-.01,0,0,0,0-.01,0Z"/><path class="cls-5" d="m114.18,96.94c.17,0,.34,0,.5.01,0,0,0,0,0,0-.17,0-.34,0-.51,0Z"/><path class="cls-5" d="m113.48,96.94c.16,0,.32,0,.48,0-.16,0-.31,0-.47-.01,0,0,0,0-.01,0Z"/><path class="cls-5" d="m94.97,96.94c.63,0,1.26-.01,1.88-.03-.65,0-1.29-.02-1.93-.07.02.02.04.05.04.1Z"/><path class="cls-5" d="m94.76,96.83c.09.02.16.05.22.11-.06-.04-.12-.07-.18-.11-.01,0-.03,0-.04,0Z"/><path class="cls-5" d="m109.47,96.9h.02s-.01,0-.02,0h0Z"/><path class="cls-5" d="m102.15,96.7c1.36-.03,2.72-.02,4.09.1-1.35-.16-2.72-.15-4.09-.1Z"/><path class="cls-5" d="m324.57,96.68c3.73.18,6.72.26,9.03-.15-2.33.4-5.33.3-9.03.15Z"/><path class="cls-5" d="m116.37,96.94s0,0-.01.01c.16,0,.32,0,.48.03-.16-.01-.32-.03-.47-.04h0Z"/><path class="cls-5" d="m180.8,97c.41.02.81.02,1.21,0-.41,0-.81-.01-1.22,0,0,0,0,0,0,0Z"/><path class="cls-5" d="m180.28,97h0c.12,0,.25,0,.37,0,0,0,0,0,0,0-.13,0-.25,0-.38,0Z"/><path class="cls-5" d="m94.15,96.84c-.16,0-.32,0-.48,0,.14.03.31.01.48,0Z"/><path class="cls-5" d="m151.48,97.11c-1.83-.03-3.65-.11-5.47-.19,1.82.08,3.65.17,5.47.19Z"/><path class="cls-5" d="m339.22,80.54c.44.49.56,1.47.3,3.28,0,0,0,.02,0,.03,0,0,0-.02,0-.03.37-1.82.19-2.79-.3-3.28Z"/><path class="cls-5" d="m132.41,96.99c1.59-.03,3.18-.06,4.74-.03-1.57-.05-3.15,0-4.74.03Z"/><path class="cls-5" d="m125.36,96.83c.4.04.81.07,1.22.1-.38-.03-.76-.06-1.14-.11-.03.01-.05,0-.08.02Z"/><path class="cls-5" d="m112.04,96.93c.1,0,.2,0,.3,0-.1,0-.19,0-.29,0,0,0,0,0,0,0Z"/><path class="cls-5" d="m67.18,89.38c1.07-1.67,3.13-2.24,5.63-2.41-2.5.17-4.56.74-5.63,2.41Z"/><path class="cls-5" d="m64.21,96.55h0s-.02.02-.03.03c.4,0,.79.01,1.19.02-.39-.05-.77-.09-1.16-.05Z"/><path class="cls-5" d="m66.95,96.56c-.02-.07-.03-.14-.05-.2.02.07.03.13.05.2h0Z"/><path class="cls-5" d="m80.35,94.82c-.57.72-1.42,1.22-2.23,1.73.81-.51,1.66-1.01,2.23-1.73Z"/><path class="cls-5" d="m16.23,23.59c.02.1.05.21.07.33.14.59.33,1.3.66,1.83.19.31.43.56.72.69.04.02.08.05.12.06-.63-6.21-.82-10.42-.4-13.38.42-3,1.46-4.72,3.32-5.88.1-.06.2-.12.31-.17.12-.07.24-.14.37-.21,1.99-1.02,4.78-1.61,8.51-2.48,2.54-.59,5.52-1.31,9-2.38-.53-.01-1.07-.02-1.61-.01-.09,0-.18,0-.26,0-.64,0-1.3.03-1.96.05-.74.03-1.48.08-2.23.13-.77.06-1.54.13-2.32.21-.26.03-.52.06-.78.1-.9.11-1.8.23-2.71.37-.19.03-.37.06-.56.1-3,.5-5.98,1.19-8.78,2.05-.93.29-1.84.59-2.73.92-.93.34-1.83.7-2.7,1.08-.3,5.96,1.38,11.31,3.96,16.59Z"/><path class="cls-5" d="m14.97,5.93c-.93.34-1.83.7-2.7,1.08h0c.86-.38,1.77-.74,2.7-1.08Z"/><path class="cls-5" d="m29.91,4.38c-3.73.87-6.52,1.46-8.51,2.48,1.99-1.02,4.78-1.61,8.51-2.48Z"/><path class="cls-5" d="m16.96,25.75c.19.31.43.56.72.69-.29-.14-.53-.38-.72-.69Z"/><path class="cls-5" d="m12.27,7.01c-.3,5.96,1.38,11.31,3.96,16.59.02.1.05.21.07.33-.03-.11-.05-.22-.07-.33-2.58-5.28-4.26-10.63-3.96-16.59Z"/><path class="cls-5" d="m17.8,26.51s0,0,0,0c-.63-6.22-.82-10.42-.4-13.38-.42,2.96-.23,7.17.4,13.38Z"/><path class="cls-5" d="m204.75,37.96c-13.28-.55-26.56-.92-39.84-1.26-4.43-.11-8.86-.22-13.28-.33-6.87-.17-13.73-.34-20.6-.53-6.87-.19-13.73-.4-20.6-.64-16.4-.3-32.78-.93-49.17-1.27-.37-.03-.71-.12-1.03-.23-1.86-.64-3.1-2.43-4.34-4.21-1.13-1.63-2.25-3.23-3.85-3.9-.07.12-.12.26-.16.4-.03.11-.06.23-.08.35-.2,1.08.04,2.43-.38,3.53-.02.05-.03.1-.05.14-.02.04-.04.07-.06.11-1.01,1.83.92,3.53,1.34,5.37.05.14.09.26.14.37.04.11.08.21.12.3.04.09.09.18.13.25.08.14.17.25.28.31.2.12.48.14.93.13.15,0,.32,0,.51-.01h0c2.57.03,5.14.05,7.72.07s5.14.03,7.72.04c2.57.01,5.14.03,7.72.05,2.57.02,5.14.05,7.72.1,29.86.24,59.71.46,89.55.98,9.95.17,19.9.38,29.84.63,1.17.04,1.92,0,2.36-.06.31-.06.48-.14.47-.23-.07-.14-.57-.29-1.28-.38-.47-.05-1.07-.08-1.8-.07Z"/><path class="cls-5" d="m54.25,36.85c.15,0,.32,0,.51-.01h0c-.19,0-.36.01-.51.01Z"/><path class="cls-5" d="m60.22,33.69c-1.86-.64-3.1-2.43-4.34-4.21,1.23,1.78,2.48,3.57,4.34,4.21Z"/><path class="cls-5" d="m51.31,30.12c-1.02,1.83.92,3.53,1.34,5.37.05.14.09.26.14.37-.04-.11-.09-.23-.14-.37-.42-1.84-2.35-3.55-1.34-5.37Z"/><path class="cls-5" d="m53.04,36.41c.08.14.17.25.28.31-.11-.07-.2-.17-.28-.31Z"/><path class="cls-5" d="m206.56,38.03c-.52-.07-1.15-.1-1.8-.07-13.28-.55-26.56-.92-39.84-1.26,13.28.34,26.57.71,39.84,1.26.73,0,1.33.03,1.8.07Z"/><path class="cls-5" d="m207.37,38.65c.38-.06.52-.14.47-.23,0,.09-.16.17-.47.23Z"/><path class="cls-5" d="m52.04,25.59c-.07.12-.12.26-.16.4.04-.14.09-.27.16-.4,0,0,0,0,0,0Z"/><path class="cls-5" d="m51.42,29.87c.42-1.11.18-2.45.38-3.53-.2,1.08.03,2.43-.38,3.53Z"/><path class="cls-5" d="m77.9,37c2.57.02,5.14.05,7.72.1,29.86.24,59.71.46,89.55.98-29.84-.52-59.69-.74-89.55-.98-2.57-.05-5.14-.08-7.72-.1Z"/><polygon class="cls-2" points="29.63 85.94 29.63 85.94 29.63 85.94 29.63 85.94"/><path class="cls-2" d="m315.85,33.24s.03.06.05.08c.72.65,1.37,1.27,2.01,1.82,1.11.95,2.18,1.68,3.49,1.97.01,0,.03,0,.05,0,.25.05.5.08.75.11.74.06,1.56-.02,2.5-.26.11-.03.22-.07.32-.11.92-.36,1.31-1.06,1.32-1.94,0-.03,0-.06,0-.09-.02-1.1-.63-2.45-1.53-3.68-.91-1.24-2.11-2.35-3.3-2.95-.87-.44-1.74-.61-2.48-.34-.59-.1-1.1-.08-1.57.03-.04,0-.08.01-.12.02-.09.02-.17.05-.26.08-.08.03-.17.06-.25.1-.05.03-.11.05-.16.08-.09.05-.17.1-.26.16-.05.04-.11.08-.16.12-.05.04-.1.08-.15.13-.88.8-1.21,2.09-.91,3.33.11.47.32.93.61,1.35Zm3.5-3.22c.53-.13.92-.07,1.22.12.36.18.63.52.81,1.07.15.33.28.68.43,1.02.16.28.34.57.49.85.02.03.04.06.06.08.01.03.01.06.02.09.25.54.31,1.03-.22,1.35-.08.05-.17.09-.27.13-.06.02-.12.05-.18.07,0,0,0,0,0,0-.14.03-.28.05-.42.06-.83.07-1.68-.2-2.36-.67-.69-.4-1.22-.95-1.3-1.53-.05-.17-.08-.35-.09-.53-.09-.59.02-1.22.43-1.84.14-.27.4-.32.68-.31.21-.04.44-.05.71.03Z"/><path class="cls-2" d="m136.31,86.28c-2.96-.15-6.4.31-8.35.99-.35.12-.68.25-.92.39,0,0,0,0,0,0-.67.45-.93,1.19-1.09,1.98-.15.75-.22,1.55-.46,2.21-.09.28-.15.53-.2.77-.28,1.3-.1,2.14.38,2.67.65.72,1.83.9,3.18.91.9,0,1.86-.05,2.78-.06v.13c2.83.03,6.95.47,8.16-2.45.11-.27.2-.55.26-.88.05-.82.34-1.64.65-2.44.33-.86.66-1.71.72-2.5,0,0,0,0,0,0,0-.01-.02-.02-.03-.04-.71-1.07-2.73-1.57-5.07-1.69Z"/><path class="cls-2" d="m99.6,86.82c-1.54-.28-3.59-.17-5.46-.01-1.71.14-3.26.31-4.1.24-.24,0-.46.03-.66.06-1.41.23-2.12,1.02-2.54,2.06-.15.36-.26.75-.35,1.16-.13.58-.23,1.18-.34,1.79-.1.57-.21,1.13-.38,1.67-.01.04-.02.08-.03.12-.18.53.08.75.3.99.05.06.1.12.14.18,0,0,0,0,0,0,0,0,0,0,0,0,.08,1.19.92,1.5,1.99,1.52,1.31.03,2.96-.37,3.99-.13v.02c2.59.16,4.35.12,5.63-.29,0,0,.02,0,.03,0,.09-.03.17-.05.26-.09,1.25-.48,2.01-1.37,2.64-2.91.43-1.05.8-2.41,1.23-4.13.05-.48-.05-.86-.26-1.18-.38-.58-1.14-.91-2.1-1.08Z"/><path class="cls-2" d="m254.97,85.33c-3.62-.27-8.4.52-9.66,1.28-.02.01-.06.03-.08.04-2.07,3.77-2.57,5.91-2.02,7.12.54,1.17,2.08,1.47,4.14,1.52,1.99.06,4.47-.11,7.02.08h0c2.01-.3,2.91-1.53,3.49-3.04.43-1.12.7-2.4,1.11-3.57.03-.09.06-.18.1-.28.03-.06.04-.12.06-.18.71-1.95-1.38-2.78-4.16-2.99Z"/><path class="cls-2" d="m276.86,85.47c-.13-.01-.24-.03-.39-.04-.16.02-.34.04-.51.05-2.38.21-5.66-.39-8.3,0-.82.12-1.59.33-2.23.71-.95.55-1.66,1.44-1.97,2.84-.08.29-.14.56-.2.83-.45,1.95-.49,3.21-.1,4.01.67,1.39,2.65,1.39,6.08,1.19h0c2.79-.09,6.56.64,8.2-2.15.11-2.48,3.37-7.05-.57-7.44Z"/><path class="cls-2" d="m121.48,87.92s-.04-.08-.05-.13c-.03-.09-.06-.18-.11-.26-.06-.1-.14-.19-.23-.28-.01-.01-.02-.03-.04-.05-.16-.15-.39-.25-.65-.34-.26-.08-.56-.15-.94-.16-.31.05-.63.08-.97.1-2.16.12-4.84-.36-7.18-.23-1.21.07-2.33.3-3.25.86-.68.42-1.24,1.03-1.64,1.89-.08.34-.15.65-.22.96-.42,1.83-.64,3.18-.5,4.13,0,.02,0,.03,0,.05,0,.04.02.07.03.11.35,1.75,2.05,2.08,6.22,1.75v.05c2.91-.07,6.99.68,8.29-2.64.02-.04.04-.08.05-.12,0-.01,0-.03,0-.04.12-1.54,1.5-4.03,1.18-5.55,0-.03,0-.06-.01-.09Z"/><path class="cls-2" d="m237.73,85.81c-.94-.22-2.34-.25-4.32-.1-.11,0-.21.01-.32.02-.54,0-1.09,0-1.66-.01-2.47-.03-5.09.01-6.78,1.92h0s0,.01,0,.02c-.2,1.39-1.14,3.7-1.12,5.42.02,1.12.44,2,1.76,2.22.02,0,.04,0,.05,0,.21.03.44.05.7.05h0c.25-.02.5-.04.75-.04,1.74-.06,3.58.18,5.36.2,2.04.02,3.99-.25,5.63-1.58,0,0,0-.02,0-.03.6-1.97,1.2-3.57,1.49-4.82.41-1.77.2-2.84-1.54-3.25Z"/><path class="cls-2" d="m218.2,86.07c-.47.07-1,.09-1.57.09-1.74-.01-3.86-.28-5.85-.3-2.36-.02-4.51.33-5.62,1.91-.28.39-.5.84-.63,1.4-.1.33-.19.64-.27.94-.48,1.79-.57,3.06-.25,3.94.51,1.41,2.08,1.79,4.81,1.65.39-.02.81-.05,1.25-.09,0-.01,0-.03,0-.04,2.84-.14,7.26.75,8.47-2.61,0-1.34,1.26-3.5,1.37-5.04.07-.96-.31-1.69-1.72-1.83Z"/><path class="cls-2" d="m158.78,86.43c-.26.04-.52.07-.8.09-2.28.16-5.27-.39-7.77-.16-1.19.11-2.27.39-3.11,1.01-.65.48-1.17,1.17-1.47,2.14-.12.43-.23.83-.32,1.21-.46,1.9-.5,3.14-.17,3.94.01.02.01.06.03.08.02.05.05.08.08.12.8,1.45,3.12,1.28,6.79,1.25,1.16.03,2.36.09,3.48-.03,1.29-.15,2.48-.55,3.43-1.56.12-.13.23-.26.35-.41,0-.06.02-.13.03-.2.22-1.45,1.42-3.69,1.56-5.35.1-1.18-.34-2.07-2.11-2.13Z"/><path class="cls-2" d="m198.07,86.14c-.31.05-.63.07-.96.09-2.56.13-5.81-.47-8.42,0-.07.01-.14.02-.21.03-1.36.28-2.53.87-3.32,2.04-.1.39-.19.75-.28,1.11-.43,1.71-.71,3-.67,3.96,0,.05,0,.11,0,.15,0,.01,0,.03,0,.04.15,1.78,1.55,2.3,5.44,2.08.26-.01.53-.03.81-.05,0,.04,0,.09,0,.13,1.25-.02,2.58.09,3.84.02,1.4-.08,2.72-.39,3.8-1.34.18-.16.36-.33.52-.53,0-.06.02-.12.03-.18.19-1.49,1.44-3.87,1.48-5.56.03-1.1-.45-1.92-2.07-2Z"/><path class="cls-2" d="m297.98,86.05c-.06-.05-.11-.11-.18-.15-.06-.04-.13-.07-.2-.1-1.49-.77-4.45-.31-5.96-.42v.02c-.93-.09-1.76-.12-2.53-.11-2.45.03-4.09.6-5.17,2.05-.66.89-1.11,2.13-1.42,3.76-.09.46-.16.93-.23,1.45.02.21.06.39.11.57.54,1.93,2.96,2.09,5.56,1.94,1.48-.09,3-.27,4.26-.29.62,0,1.18.02,1.63.13.25-.01.48-.05.7-.1,2.81-.66,2.84-4.23,3.74-6.53.32-.97.21-1.62-.17-2.06-.05-.05-.11-.09-.16-.14Z"/><path class="cls-2" d="m178.76,86.3c-.33.03-.68.04-1.04.04-2.24.02-4.91-.41-7.3-.23-1.09.08-2.12.28-3.01.72-.73.36-1.37.87-1.89,1.59-.1.41-.2.8-.28,1.17-.42,1.73-.68,3.02-.66,3.96.04,1.48.82,2.11,2.96,2.23.88.05,1.99,0,3.37-.09,0,.04,0,.09,0,.13,2.58-.16,6.32.66,7.9-1.7.08-.12.16-.24.23-.37,0-.04.02-.08.02-.12.2-1.27,1.18-3.18,1.41-4.74.18-1.26-.12-2.29-1.71-2.58Z"/><path class="cls-2" d="m332.93,88.49c-.07-.05-.14-.1-.21-.15-.9-.62-1.85-.92-2.77-.96-.04,0-.09,0-.13,0-.09,0-.19,0-.28,0-1.18.04-2.26.51-3.02,1.24-.04.04-.08.07-.11.11-.01.01-.02.02-.03.03-.82.88-1.19,2.11-.75,3.45.22.68.64,1.38,1.31,2.08,0,0,0,0,0,.01h0s0,0,0,0c.1-.01.2-.02.3-.03.3-.03.61-.04.94-.04,1.28,0,2.65.13,3.74-.44,0,0,0,0,0,0,.64-.68,1.44-1.84,1.72-2.96.18-.7.14-1.39-.28-1.93-.12-.15-.26-.3-.44-.42Zm-.98,2.28c-.03.06-.07.09-.11.14-.04.08-.09.14-.15.2-.02.01-.03.03-.05.04-.1.08-.21.14-.34.17,0,0-.02,0-.02,0-.07.01-.14.02-.22.02-.28.02-.58-.03-.89-.13-.06-.02-.12-.04-.18-.06-.06-.02-.12-.05-.19-.07-.31-.13-.6-.29-.84-.45-.12-.08-.25-.17-.36-.26-.16-.12-.22-.22-.22-.3,0-.06.04-.11.09-.16.04-.04.09-.07.14-.11.06-.04.12-.08.17-.12.05-.04.09-.09.11-.14.01-.03.03-.05.03-.08,0-.39.09-.68.24-.88.07-.1.16-.18.26-.24.1-.06.2-.09.31-.11.11-.02.22-.02.34,0,.23.04.45.16.63.33.09.09.17.19.24.31.12.22.2.47.19.77.16.03.29.08.4.15.08.04.13.1.18.15.03.03.08.06.1.1.03.04.04.08.06.12.08.16.12.35.08.56Z"/><path class="cls-2" d="m23.63,33.22c.14.11.29.21.44.31,1.41.9,3.52,1.46,5.41,1.51,1.26.03,2.43-.16,3.24-.62.04-.05.09-.08.13-.12.92-.85,1.69-.77,2.08-1.23.26-.3.35-.83.21-2.01.17-.77-.29-1.79-1-2.63-.63-.75-1.45-1.36-2.18-1.56-.1-.03-.21-.05-.31-.06-.8-.23-2.86-.32-4.09.11-.34.12-.62.27-.79.48-.26.31-.26.74.15,1.31.23.14.5.27.79.39.61.26,1.31.51,1.94.81.13.06.26.13.39.2.26.14.49.3.7.48.58.51.88,1.18.58,2.16-2.28,1.79-8.43.19-7.01-3.37-.02-.11,0-.26.02-.4.03-.2.03-.4-.11-.49,0,0,0-.01-.01-.02h0c-2.15,1.65-2.16,3.14-1.11,4.28.15.16.32.32.51.47Z"/><path class="cls-5" d="m25.7,30.99c.71.88,1.82,1.93,2.16,1.95.26-.12.68-.58.93-1.04.27-.51.35-1.03-.17-1.16-.42-.04-.89-.28-1.37-.52-.47-.24-.95-.47-1.38-.54h0c-.29-.04-.55,0-.78.16,0,0,0,0,0,.01-.09.16.19.62.61,1.14Z"/><polygon class="cls-5" points="25.09 29.84 25.09 29.85 25.1 29.84 25.09 29.84"/><path class="cls-5" d="m28.79,31.9c.27-.51.36-1.03-.17-1.16-.42-.04-.89-.28-1.37-.51.48.24.95.47,1.37.52.52.13.44.65.17,1.16Z"/><path class="cls-5" d="m25.7,30.99c.71.88,1.82,1.93,2.16,1.95-.34-.02-1.44-1.07-2.16-1.95Z"/><path class="cls-5" d="m331.88,90.2s-.03-.08-.06-.12c-.03-.04-.07-.06-.1-.1-.05-.06-.11-.11-.18-.15-.11-.06-.24-.12-.4-.15-.71-.37-1.45-.43-2.21-.2,0,.03-.02.06-.03.08-.02.05-.06.09-.11.14-.05.04-.11.08-.17.12-.05.03-.1.07-.14.11-.05.05-.09.1-.09.16,0,.08.06.18.22.3.12.09.24.17.36.26.26.18.54.33.84.45.06.02.12.05.19.07.06.02.12.05.18.06.18.05.37.08.57.09.12.03.22.03.32.04.08,0,.15,0,.22-.02,0,0,.02,0,.02,0,.13-.03.25-.09.34-.17.02-.01.03-.03.05-.04.06-.06.11-.13.15-.2.12-.22.14-.47.03-.7Z"/><path class="cls-5" d="m329.8,91.08c-.3-.12-.58-.27-.84-.45.24.16.54.32.84.45Z"/><path class="cls-5" d="m328.92,89.48s-.01.06-.03.08c.01-.03.03-.05.03-.08,0,0,0,0,0,0Z"/><path class="cls-5" d="m328.78,89.7c.05-.04.09-.09.11-.14-.02.05-.06.09-.11.14Z"/><path class="cls-5" d="m30.99,90.59h0c-.53-.04-.88-.06-1.15-.02-.26.07-.45.2-.57.36-.08.16-.13.38-.18.67,0,.03,0,.06,0,.09.07.09.09.19.08.29.07.15.17.29.3.4.2.12.41.19.61.2.28,0,.59-.12.94-.4.1-.54.32-1.07-.04-1.6Z"/><path class="cls-5" d="m29.09,91.61s0,.03-.01.05c.01.01,0,.03.02.04,0-.03,0-.06,0-.09Z"/><path class="cls-5" d="m29.15,92.16c.11.09.21.16.32.22-.13-.11-.23-.24-.3-.4,0,.06,0,.11-.02.17Z"/><path class="cls-5" d="m31.03,92.19c-.35.28-.66.39-.94.4.31.02.62-.1.94-.4Z"/><path class="cls-5" d="m29.27,90.94c.12-.16.31-.29.57-.36-.3.04-.46.15-.57.36Z"/><path class="cls-4" d="m40.04,8.36s0,0,0,0c-.56.72-.72,1.54-.85,2.36-.08.5-.14.99-.28,1.48-.09.31.03.53.27.71.06.04.12.09.19.13.2.16.41.3.62.44,2.03,1.36,4.27,1.95,6.77,1.7,9.55-.06,19.1-.08,28.66-.08,31.5-.01,63.05.19,94.55.13,24.76-.05,49.5-.26,74.18-.86-65.4-.03-130.78-.04-196.18-.11-1.21,0-2.31.04-3.19-.62-.3-.23-.58-.54-.83-.98-.12-.14-.22-.3-.28-.47-.33-.8-.06-1.85.54-2.92.24-.42.53-.84.85-1.25.91-1.15,2.11-2.22,3.25-2.93.73-.45,1.44-.75,2.04-.83,21.32-.05,42.63.17,63.95.31,14.25.1,28.51.18,42.76.26,4.52.02,9.05.04,13.57.07,14.61.07,29.22.12,43.84.14,2.48.01,4.97.03,7.45.05,7.19.04,14.38.09,21.57.14,9.47.06,18.94.12,28.4.19,6.06.04,12.13.09,18.19.12,1.6.04,2.99.04,4.21.02,2.95-.05,4.92-.19,6.53.04,1.53.23,2.75.8,4.17,2.12.98.91,2.06,2.19,3.41,3.96.6.78,1.25,1.66,1.97,2.65,0,0,0,0,0,0-6.47.63-13.87.62-21.42.48-7.5-.14-15.14-.4-22.19-.29-1.37-.16-32.3,1.3-39.85,1.35-15.56.1-31.12.32-46.67.52-2.83.04-5.67.08-8.5.11-32.25.18-64.5.4-96.75.67-6.75.06-13.49.1-20.24.17-.12.01-.23.02-.35.03-3.48.3-6.25.21-8.39.08-2.84-.18-4.58-.42-5.38.05-.88.53-.63,1.95.51,5.33.51,1.52,1.2,3.42,2.05,5.83,0,0,0,0,0,0,.23.63.28,1.3.26,1.98-.03,1.55-.37,3.13.42,4.48.04.07.08.14.12.21.47.51.78,1.22,1.08,1.95.32.76.63,1.53,1.1,2.1.37.44.85.76,1.51.83.38,0,.75,0,1.13,0,4.18.03,8.36.06,12.54.09,5.75.04,11.51.11,17.26.18,3.91.05,7.82.08,11.73.15,16.75.12,33.5.27,50.24.42,20.9.19,41.8.39,62.7.56,4.04.03,8.09.07,12.13.1,12.82.11,25.64.19,38.46.28,9.81.07,19.61.15,29.42.25,10.89.11,21.79.24,32.68.44,1.56.16,3.2.04,4.82-.03.99-.04,1.97-.06,2.94.02.24.02.48.05.71.08.51.07,1.01.16,1.49.31.51.35,1.02.72,1.52,1.08,2.42,1.76,4.77,3.68,6.94,5.79,1.65,1.6,3.2,3.3,4.59,5.11,0,0,.01.02.02.02.07.14.63.68,1.05,1.17.09.11.17.21.24.31,0,0,0,0,0,0,.86-2.06-1.25-7.09-3.38-12.04,0,0,0,0,0,0-3.09-7.17-4.64-14.96-7-22.44-.01-.04-.02-.07-.03-.11-.02-.03-.03-.07-.05-.11-.99-1.92-1.35-4.31-1.92-6.55-.6-2.37-1.45-4.56-3.55-5.82-.09-.05-.17-.09-.26-.14-2.95-1.63-6.2-2.63-9.54-3.44-3.66-.9-7.41-1.58-10.95-2.64-.06-.02-.12-.03-.18-.05-6.81-.13-13.61-.24-20.43-.32-20.43-.25-40.89-.31-61.35-.31-35.08,0-70.18.15-105.22-.19h-.1c-8.23-.04-16.45-.04-24.68-.03-10.19,0-20.38,0-30.57-.07-3.85-.03-7.71-.05-11.56-.1-.35.1-.7.21-1.06.31-.41.13-.83.26-1.24.4-1.65.56-3.29,1.27-4.65,2.29-1.1.83-2.02,1.86-2.58,3.18Zm135.14,29.71c-29.84-.52-59.69-.74-89.55-.98-2.57-.05-5.14-.08-7.72-.1-2.57-.02-5.14-.04-7.72-.05-2.57-.01-5.14-.02-7.72-.04s-5.14-.04-7.72-.07c-.19,0-.36.01-.51.01-.45,0-.72-.01-.93-.13-.11-.07-.2-.17-.28-.31-.04-.07-.09-.15-.13-.25-.04-.09-.08-.19-.12-.3-.04-.11-.09-.23-.14-.37-.42-1.84-2.36-3.55-1.34-5.37.02-.04.03-.07.06-.11.02-.05.03-.1.05-.14.41-1.11.18-2.45.38-3.53.02-.12.05-.24.08-.35.04-.14.09-.27.16-.4,0,0,0,0,0,0h0c1.6.67,2.72,2.27,3.85,3.9,1.23,1.78,2.48,3.57,4.34,4.21.33.11.66.2,1.03.23,16.4.34,32.78.97,49.17,1.27,6.87.25,13.73.46,20.6.64,6.87.19,13.73.36,20.6.53,4.43.11,8.86.22,13.28.33,13.28.34,26.57.71,39.84,1.26.66-.03,1.28,0,1.8.07.85.09,1.28.24,1.28.38.05.09-.09.17-.47.23-.46.09-1.24.12-2.36.06-9.95-.25-19.89-.46-29.84-.63Zm140.97-9.5s.09-.09.15-.13c.05-.04.1-.08.16-.12.08-.06.17-.11.26-.16.05-.03.1-.05.16-.08.08-.04.16-.07.25-.1.08-.03.17-.06.26-.08.04,0,.08-.02.12-.02.46-.1.98-.13,1.57-.03.74-.27,1.6-.1,2.48.34,1.37.55,2.48,1.65,3.3,2.95.89,1.22,1.5,2.57,1.53,3.68,0,0,0,.02,0,.03,0,.02,0,.04-.01.07,0,.88-.4,1.58-1.32,1.94-.77.38-1.78.48-2.82.37-.26-.02-.51-.05-.75-.11-.01,0-.03,0-.05,0-1.45-.31-2.83-1.01-3.47-1.94,0-.01-.01-.02-.02-.03-.64-.55-1.29-1.17-2.01-1.82-.02-.03-.03-.06-.05-.08-.15-.13-.3-.27-.41-.42-.09-.31-.16-.62-.2-.92-.3-1.24.04-2.53.91-3.33Z"/><path class="cls-6" d="m338.04,55.32c-3.65-3.49-7.65-6.35-12.02-8.19-2.19-.92-4.47-1.59-6.84-1.95-2.43-.37-4.96-.43-7.59-.12-43.43-.31-86.86-.34-130.29-.42-26.06-.05-52.12-.11-78.18-.27-9.16-.02-18.32-.03-27.48-.04s-18.32-.01-27.48-.02c-9.73,1.6-18.24,7.33-24.95,14.41-.18.24-.55.44-.86.65-.28.19-.51.39-.49.63,0,0,0,0,0,0,.03.16.1.26.2.33.3.2.84.06,1.21.11.36.05.72.11,1.07.18,1.07.22,2.12.5,3.23.5,23.76-.34,47.59-.8,71.34-2.04,14.43-.75,28.84-1.79,43.19-3.27,10.94-3.32,22.01-5.43,33.17-6.75,5.39-.64,10.8-1.09,16.22-1.41,25.11-1.45,50.54.06,75.78-.12,4.51,0,9.02.03,13.53.04,13.33.04,26.67.11,40,.16,3.66.85,6.73,4.26,9.93,6.27,5.66,3.55,8.39,4.14,9.38,2.98-.09-.04-.18-.1-.27-.17-.6-.4-1.33-1.09-1.44-1.19-.11-.11-.22-.21-.34-.32Z"/><path class="cls-4" d="m342.02,67c1.61-.15,2.07-1.05,2.02-2.12-.05-.88-.44-1.87-.84-2.66,0,0,0-.01,0-.02-.03-.02-.07-.04-.1-.06-.42-.27-.97-.24-1.54-.19-.42.04-.84.08-1.22.02-48.71.91-97.9.57-147.02.42-58.08-.18-116.07-.07-173.08,2.75-.03,0-.05,0-.08,0,59.63,1.26,105.84.73,169.65,1.28,44.24.24,105.14.54,152.23.57Z"/><path class="cls-4" d="m158.21,68.76h-.02c-22.54,0-45.09-.01-67.63-.01-22.54,0-45.09,0-67.63.03-.01,0-.03,0-.04,0-1.46.16-1.96,1.25-2.1,2.59-.15,1.5.15,3.32.1,4.5,0,0,0,0,0,.01,67.11-3.39,136.17-2.47,204.56-4.27,16.05-.42,32.06-1.01,48-1.82,1.04-.05,2.08-.09,3.11-.15,5.66-.3,11.3-.63,16.94-.99-22.55.05-45.09.07-67.64.09-22.55.01-45.09.01-67.64,0Z"/><path class="cls-6" d="m20.75,57.58c.95-.22,2.38-1.81,3.66-3.36,1.08-1.3,2.07-2.57,2.59-2.96.01,0,.03-.02.04-.03,2.23-1.59,4.67-2.91,7.16-4.12,2.5-1.21,5.06-2.33,7.54-3.51.24-.06.34-.22.31-.37,0,0,0,0,0,0-.01-.07-.05-.13-.1-.17,0,0,0,0,0,0-.06-.05-.15-.08-.26-.08-.06-.01-.11-.03-.16-.04-2.42-.6-4.08-.61-5.2-.8-1.1-.19-1.7-.55-2.04-1.82-.23-.89-.34-2.21-.39-4.23-.54-1.8,1.35-2.6,2.82-3.6.04-.03.08-.05.12-.08.89-.62,1.59-1.32,1.43-2.39-.08-.46-.17-.87-.26-1.25-.19-.81-.4-1.42-.61-1.89-.48-1.04-1.01-1.41-1.59-1.72-.47-.25-.97-.45-1.5-.93-.05-.05-.11-.1-.16-.16,0,0-.01-.01-.02-.02-.21-.22-.42-.48-.64-.81-.11-.17-.22-.34-.33-.55-.48-3.13-1.07-4.98-1.26-6.06-.2-1.17.07-1.46,1.44-1.54,1.06-.06,2.78.01,5.46-.09-1.64-.71-2.33-1.86-2.38-3.18,0-.03,0-.06,0-.1,0-.12,0-.23,0-.35,0-.07.02-.14.02-.21,0-.08.01-.17.03-.25.02-.1.04-.21.06-.32.01-.05.02-.1.03-.15.02-.1.05-.2.08-.3.02-.06.03-.11.05-.17.01-.04.03-.07.04-.11.99-2.97,4.08-6.15,6.39-7.09.46-.36.63-.58.6-.72-.06-.25-.8-.2-1.68-.1-1.21.14-2.7.37-3.12.08-3.48,1.07-6.45,1.79-9,2.38-3.73.87-6.52,1.47-8.51,2.48-.13.07-.25.14-.37.21-.1.06-.21.11-.31.17-1.86,1.16-2.9,2.88-3.32,5.88-.41,2.96-.22,7.16.4,13.38,0,0,0,0,0,0,0,0,0,0,0,0-.04-.01-.08-.04-.12-.06-.29-.13-.53-.38-.72-.69-.32-.54-.52-1.24-.66-1.83-.03-.11-.05-.22-.07-.33-2.58-5.28-4.26-10.63-3.96-16.59h0s0,0,0,0c-.39.22-.99.5-1.48.84-.46.32-.82.71-.8,1.17,0,0,0,.01,0,.02.47,3.37-.23,6.82.6,10.17.12.48.27.95.46,1.43,1.22,4.45,2.32,8.93,3.38,13.43.44,1.87.88,3.75,1.31,5.62,1.3,5.63,2.58,11.26,3.99,16.86,0,0,0,0,0,0,.15.88.52,1.15,1.03,1.03Zm4.34-27.72s0,0,0-.01c0,0,0,0,0,0,0,0,0,0,0,0,.23-.17.49-.2.78-.16h0c.43.06.9.3,1.38.54.48.24.95.47,1.37.51.53.13.44.65.17,1.16-.25.46-.66.92-.93,1.04-.34-.02-1.44-1.07-2.16-1.95-.42-.52-.7-.98-.61-1.14Zm-.87-1.38h0s0,.01.01.02c.14.1.14.29.11.49-.02.15-.04.29-.02.4-1.42,3.56,4.73,5.16,7.01,3.37.3-.98,0-1.65-.58-2.16-.2-.18-.44-.34-.7-.48-.12-.07-.25-.14-.39-.2-.63-.3-1.33-.55-1.94-.81-.29-.12-.56-.25-.79-.39-.41-.57-.41-.99-.15-1.31.17-.2.45-.36.79-.48,1.23-.43,3.29-.34,4.09-.11.1.01.2.03.3.06.73.19,1.55.81,2.18,1.56.71.84,1.18,1.85,1,2.63.14,1.18.04,1.71-.21,2.01-.39.46-1.17.38-2.08,1.23-.04.04-.09.08-.13.12-.81.46-1.98.65-3.24.62-1.89-.05-4-.61-5.41-1.51-.16-.1-.31-.21-.44-.31-.19-.15-.36-.31-.51-.47-1.05-1.14-1.04-2.63,1.11-4.28Z"/><path class="cls-6" d="m354.17,79.79c-.03-.76-.06-1.32-.23-1.73-.2-.46-.59-.74-1.43-.93-.5-.11-1.16-.2-2.04-.27-.02,0-.06,0-.08,0-.22,0-.48-.06-.77-.19-.98-.44-2.26-1.5-3.42-2.42-.53-.42-1.04-.82-1.49-1.11-.78-.51-1.34-.69-1.48-.13,0,0,0,0,0,.01,0,0,0,0,0,0,.05.16.1.34.14.53.02.07.04.12.05.19.42,1.82.55,4.61.41,6.42-.16,2.02-.65,2.8-1.47-.43-.03-.12-.06-.26-.1-.4-.03-.11-.05-.21-.08-.33-.12-.53-.25-1.14-.38-1.84-.11.73-.6,4.15-.58,6.69.02,2.19.42,3.74,1.8,2.32,0,0,.01-.01.02-.02,1.03-.99,2.34-1.5,3.72-1.83,1.99-.48,4.14-.63,5.89-1.36.57-.24,1.09-.54,1.55-.94.04-.04.09-.06.12-.1-.01-.08-.02-.15-.03-.23-.09-.74-.12-1.37-.15-1.89Z"/><path class="cls-6" d="m368.36,79.36c-.15-3.24-.6-4.92-1.37-5.57-.65-.55-1.52-.38-2.66.18-1.13.56-2.52,1.51-4.19,2.54-2.65.45-2.94.83-2.79,1.91.07.48.21,1.11.28,1.95.01.14.02.27.03.42-.02.66.12,1.18.4,1.6.37.56.95.95,1.65,1.23,1.5.6,3.49.69,4.85,1.01.06.01.13.03.19.04.07,0,.13,0,.2.01,1.74.15,2.63-.85,3.06-2.18.32-.98.39-2.14.36-3.14Z"/><path class="cls-4" d="m7.29,8.41c-1.6.5-1.85.84-1.97,2.65.13,1.22.3,2.42.5,3.62.56,3.3,1.38,6.56,2.25,9.8.8,3.1,1.48,6.51,2.26,9.85.92,3.94,1.99,7.79,3.62,10.95,0,0,0,0,0,0-.44-9.12-4.37-18.69-5.99-28.3-.48-2.86-.77-5.73-.68-8.59Z"/><path class="cls-6" d="m364.52,87.58s-.09-.05-.13-.08c-.2-.11-.42-.23-.66-.34-.43-.19-.92-.38-1.42-.55-1.53-.52-3.25-.9-4.06-.93-.23,0-.41.03-.53.09-.31.15-.27.5-.07.89.35.68,1.18,1.52,1.58,1.8.09.07.18.12.28.17.13.07.26.14.39.19.31.12.63.2.95.25.17.03.34.05.51.07.3.03.59.06.88.11.15.03.29.06.43.09,2.6-.3,2.94-.88,2.24-1.49-.1-.09-.23-.18-.38-.27Z"/><path class="cls-4" d="m165.66,96.79c-2.93,0-5.85.04-8.71.19,3.11.29,6.37.42,9.65.44.66,0,1.31.01,1.97,0,3.95-.02,7.92-.19,11.7-.42h0c-4.79-.06-9.72-.21-14.61-.21Z"/><path class="cls-4" d="m184.96,97c1.9.18,3.93.29,5.96.31.2,0,.39,0,.58,0,.82,0,1.64,0,2.45-.04,1-.04,1.98-.1,2.93-.2,0,0,0,0,0,0-.69-.02-1.4-.04-2.1-.07-3.27-.11-6.64-.23-9.82,0Z"/><path class="cls-4" d="m66.95,96.56s-.01.05-.01.05c1.29.58,2.57.19,3.86.22,0-.09,0-.18,0-.26-1.28,0-2.56,0-3.84,0h0Z"/><path class="cls-4" d="m42.75,85.57c-.18,0-.37.12-.55.34,0,0,0,0,0,0,.37.06.75.07,1.12-.01-.09-.12-.19-.2-.28-.25-.09-.05-.19-.08-.28-.08Z"/><path class="cls-2" d="m369.01,72.43c-5.73-5.81-8.51,6.19-18.14,2.95,0,0,0,0,0,0-.4.07-.82-.02-1.22-.2-.28-.13-.54-.31-.77-.54-.18-.18-.34-.4-.47-.63-1.42-.82-2.2-2.26-3.25-3.43-.5-.68-2.15-1.37-.79-2.12,4.45-2.75-1.44-9.69-2.03-13.56-2.1-6.93-3.99-13.93-6.18-20.82-3.48-7.52-3.84-20.22-9.5-25.75-22.9-11.51-49.68-6.02-73.82-8.32h-.36c-26,1.23-54.85.51-81.38,0H36.21c.04.82,1.8.18,2.5.37-5.53.52-11.51,2.25-17.29,2.89-5.09.12-10.54,1.36-14.13,5.14-.09,2.86.2,5.73.68,8.59,1.62,9.61,5.55,19.18,5.99,28.3,0,0,0,0,0,0,0,0,0,0,0,0-1.63-3.16-2.7-7.02-3.62-10.96-.78-3.34-1.46-6.74-2.26-9.85-.88-3.25-1.69-6.5-2.25-9.8-.2-1.2-.38-2.41-.5-3.62-1.7,3.65-2.51,7.79-3.16,11.71-1.17,5.31-3.17,10.77-1.57,16.3,3.44,17.45,7.94,34.86,9.68,52.57,1.15,3.48,3.26,9.32,7.62,8.92,43.82.08,87.64-.01,131.45-.13,61.62-.52,123.39.45,184.93-1.02,5.7.1,4.54-3.67,7.68-6.96,1.23-3.83,6.07-5.14,9.74-5.56,5.27-.66,9.39,5.53,14.51,4.16,6.95-2.69,6.23-13.28,2.8-18.62ZM48.1,2.5c.14,0,.27,0,.41,0,.36-.11.71-.21,1.06-.31,3.85.06,7.71.08,11.56.1,10.17-.09,20.37,0,30.57.07,8.23,0,16.45,0,24.68.03.03,0,.07,0,.1,0,35.05.35,70.14.19,105.22.19,20.46,0,40.92.06,61.35.31,6.81.08,13.62.19,20.43.32.06.02.12.03.18.05,3.55,1.06,7.29,1.74,10.95,2.64,3.34.82,6.59,1.81,9.54,3.44.09.05.17.09.26.14,2.1,1.26,2.95,3.45,3.55,5.82.58,2.23.95,4.62,1.92,6.55.02.04.03.07.05.11.01.04.02.07.03.11,2.37,7.48,4.55,15.03,7,22.44,0,0,0,0,0,0,2.13,4.95,4.24,9.98,3.38,12.04,0,0,0,0,0,0-.07-.1-.15-.2-.24-.31-.42-.49-.97-1.03-1.05-1.17,0,0-.01-.02-.02-.02-1.45-1.64-2.97-3.41-4.59-5.11-2.17-2.1-4.52-4.03-6.94-5.79-.97-.57-1.97-1.04-3.01-1.39-.24-.03-.47-.06-.71-.08-.98,0-1.96-.02-2.94-.02-1.62.07-3.25.19-4.82.03-10.89-.2-21.79-.33-32.68-.44-2.69-.02-5.38-.04-8.07-.04-7.12-.08-14.23-.15-21.35-.21-12.82-.09-25.64-.17-38.46-.28-4.04-.03-8.09-.07-12.13-.1-20.9-.14-41.8-.3-62.7-.56-16.75-.15-33.5-.3-50.24-.42-3.91-.06-7.82-.1-11.73-.15-5.75-.07-11.51-.13-17.26-.18-4.18-.03-8.36-.07-12.54-.09-1.03.06-2.05.04-2.64-.84-.47-.56-.79-1.33-1.1-2.1-.43-.71-.87-1.42-1.21-2.16-.79-1.34-.45-2.93-.42-4.48,0-.66-.07-1.32-.27-1.98,0,0,0,0,0,0-.85-2.41-1.53-4.31-2.05-5.83-1.14-2.74-2.05-5.35-.51-5.33.8-.48,2.54-.23,5.38-.05,2.8-.02,5.59-.05,8.39-.08.12-.01.23-.02.35-.03,6.75-.07,13.49-.11,20.24-.17,10.45-.11,20.91-.22,31.37-.32,24.48-.09,49.2-.24,73.88-.46,15.56-.21,31.12-.42,46.67-.52,13.15-.18,54.54-1.2,62.04-1.06,7.18-.15,14.33-.31,21.42-.48-.72-.99-1.37-1.87-1.97-2.65-.06-.05-.11-.1-.16-.15-1.37-.86-2.24-2.48-3.25-3.81-1.42-1.33-2.63-1.9-4.17-2.12-2.18-.01-4.36-.03-6.53-.04-1.22.02-2.61.03-4.21-.02-6.06-.04-12.13-.08-18.19-.12-9.47-.07-18.94-.13-28.4-.19-7.19-.05-14.38-.09-21.57-.14-17.1-.06-34.19-.12-51.29-.19-4.52-.02-9.05-.04-13.57-.07-14.25-.08-28.51-.16-42.76-.26-21.32-.15-42.63-.36-63.95-.31-.6.08-1.31.38-2.04.83-.53.45-1.03.98-1.61,1.35-.64.48-1.19,1.02-1.65,1.57-.33.41-.62.83-.85,1.25-.56,1.03-.77,2.06-.54,2.92.07.17.16.32.28.47.25.43.52.75.83.98.71.44,1.75.69,3.19.62,65.4.07,130.78.08,196.18.11-24.67.61-49.41.82-74.18.86-31.56.31-63.17.41-94.55-.13-9.56,0-19.11.02-28.66.08-2.49.25-4.74-.34-6.77-1.7-.32-.17-.61-.35-.82-.56-.24-.18-.36-.4-.27-.71.14-.48.2-.98.28-1.48.13-.83.29-1.65.85-2.36,0,0,0,0,0,0,.54-1.43,1.47-2.41,2.58-3.18,1.36-1.02,3-1.73,4.65-2.29.28-.13.56-.26.84-.39Zm291.98,54.49c-.99,1.16-3.73.57-9.38-2.98-3.2-2.01-6.27-5.42-9.93-6.27-13.33-.05-26.67-.12-40-.16-4.5.06-9.01.07-13.53-.04-25.25.17-50.67-1.34-75.78.11-5.42.31-10.83.77-16.22,1.41-11.15,1.32-22.22,3.42-33.17,6.75-14.35,1.48-28.76,2.52-43.19,3.27-23.76,1.24-47.58,1.69-71.34,2.04-1.1,0-2.16-.28-3.23-.5-.36-.07-.71-.14-1.07-.18-.36-.05-.91.09-1.21-.11-.1-.07-.17-.17-.2-.33,0,0,0,0,0,0-.02-.24.21-.44.49-.63.3-.21.67-.41.86-.65,6.72-7.08,15.22-12.81,24.95-14.41,9.16.01,18.32.02,27.48.02s18.32.02,27.48.04c26.06.15,52.12.22,78.18.27,43.43.08,86.87.11,130.29.42,2.63-.31,5.16-.26,7.59.12,2.38.36,4.66,1.03,6.84,1.95,4.38,1.84,8.38,4.69,12.02,8.19.11.11.23.21.34.31.11.1.84.79,1.44,1.19h0c.1.06.19.12.27.17ZM244.61,14.38s.06.07.09.1c-.06.03-.11.07-.17.1-.07-.11-.05-.16.07-.21ZM19.72,56.55s0,0,0,0c-1.41-5.59-2.69-11.23-3.99-16.85-.43-1.88-.87-3.75-1.31-5.62-1.06-4.5-2.16-8.98-3.38-13.43-.19-.47-.34-.95-.46-1.43-.83-3.35-.13-6.79-.6-10.17,0,0,0-.01,0-.02-.02-.47.34-.85.8-1.17.48-.35,1.07-.63,1.48-.84,0,0,0,0,0,0,.86-.38,1.77-.74,2.7-1.08.89-.32,1.8-.63,2.73-.92,2.8-.86,5.78-1.55,8.78-2.05.19-.03.37-.07.56-.1.9-.14,1.81-.26,2.71-.37.26-.03.52-.07.78-.1.78-.09,1.55-.15,2.32-.21.75-.06,1.49-.1,2.23-.13.66-.03,1.31-.05,1.96-.05.09,0,.18,0,.26,0,.54,0,1.08,0,1.61.01.42.29,1.91.06,3.12-.08.89-.1,1.63-.15,1.68.1.03.14-.14.36-.6.72-2.31.94-5.4,4.12-6.39,7.09-.01.04-.03.07-.04.11-.02.06-.03.11-.05.17-.03.1-.06.2-.08.3-.01.05-.02.1-.03.15-.02.11-.05.21-.06.32-.01.08-.02.17-.03.25,0,.07-.02.14-.02.21,0,.12,0,.23,0,.35,0,.03,0,.06,0,.1.05,1.32.74,2.47,2.38,3.18-2.68.1-4.4.03-5.46.09-1.36.08-1.63.38-1.44,1.54.19,1.09.77,2.93,1.26,6.06.11.2.22.38.33.55.22.33.43.6.64.81,0,0,.01.01.02.02.06.06.11.11.16.16.53.48,1.03.68,1.5.93.58.31,1.12.68,1.59,1.72.22.47.42,1.09.61,1.89.09.37.18.78.26,1.25.16,1.07-.54,1.77-1.43,2.39-.04.03-.08.05-.12.08-1.47.99-3.36,1.8-2.82,3.6.06,2.02.16,3.35.39,4.23.34,1.27.94,1.64,2.04,1.82,1.12.19,2.78.19,5.2.8.05.01.11.03.16.04.11,0,.2.03.26.08,0,0,0,0,0,0,.05.05.09.11.1.17,0,0,0,0,0,0,.02.14-.07.31-.31.37-2.48,1.18-5.04,2.3-7.54,3.51-2.5,1.21-4.93,2.53-7.16,4.13-.01,0-.03.02-.04.03-.52.4-1.5,1.66-2.59,2.96-1.29,1.56-2.71,3.17-3.66,3.36-.51.12-.88-.15-1.03-1.03Zm.43,8.59c57.03-2.82,115.05-2.92,173.16-2.75,49.12.15,98.31.5,147.02-.42.38.06.8.01,1.22-.02.57-.05,1.12-.08,1.54.19.03.02.07.03.1.06,0,0,0,.01,0,.02.45.79.82,1.78.84,2.66.06,1.07-.41,1.98-2.02,2.12-47.08-.03-107.98-.33-152.23-.57-63.81-.56-110.02-.02-169.65-1.28.03,0,.05,0,.08,0-.03,0-.05,0-.08,0Zm.63,6.24c.11-1.35.58-2.44,2.1-2.59.01,0,.03,0,.04,0,22.54-.03,45.09-.03,67.63-.03,22.54,0,45.09,0,67.63.01h.02c22.55,0,45.09,0,67.64,0,22.55-.01,45.09-.04,67.64-.09-5.64.37-11.28.7-16.94.99-1.04.05-2.08.1-3.11.15-15.94.81-31.95,1.4-48,1.82-68.38,1.8-137.44.88-204.56,4.27,0,0,0,0,0-.01.05-1.18-.25-3-.1-4.5Zm53.76,13.22c-.76-.01-1.52,0-2.26.07.73-.07,1.49-.09,2.26-.07Zm264.98-.76c.78,8.93-1.13,11.86-5.92,12.68-2.31.42-5.31.34-9.03.15-.03,0-.06,0-.09,0-11.05.12-22.1.2-33.15.25-18.77.09-37.56.1-56.32.09-12.71,0-25.42.01-38.13.05-.95.09-1.93.16-2.93.2-.81.03-1.63.04-2.45.04-.2,0-.39.01-.58,0-2.03-.02-4.06-.13-5.96-.31-.14,0-.29,0-.43.01-.28.1-.57.09-.85.02-.55,0-1.11-.01-1.67-.03-.4.02-.81.03-1.21,0-.05,0-.11,0-.16,0-.12,0-.25,0-.37,0-3.78.23-7.75.4-11.7.42-.66,0-1.32,0-1.97,0-3.29-.02-6.54-.15-9.65-.44-1.82.14-3.65.16-5.47.14-1.83-.03-3.65-.11-5.47-.19-.04.05-.08.07-.12.07-.04,0-.07-.03-.09-.1-.92,0-1.83-.01-2.75-.02-.02.03-.03.07-.05.1h0s-.03-.07-.05-.1c-.92,0-1.83,0-2.75,0-.03.04-.05.08-.08.12-.03-.04-.05-.08-.08-.12-.19,0-.38,0-.57,0-.05.11-.1.16-.15.16-.02,0-.05-.01-.07-.04-.02-.03-.05-.07-.07-.12-.61.01-1.23.03-1.84.04-.02.06-.04.09-.07.1s-.07-.01-.11-.05c-1.56-.03-3.15,0-4.74.03-1.95.05-3.91.09-5.83-.06-.41-.02-.82-.06-1.22-.1-.08.03-.17.05-.25.05-.11,0-.21-.03-.31-.1-2.12,0-4.24.02-6.36.02h0s-.08.07-.13.07c-.04,0-.09-.01-.14-.05-.13.02-.25.04-.38.06h0c-.03.06-.06.09-.1.1-.04,0-.08,0-.13-.05-.17.01-.34.03-.51.04-.04.04-.07.07-.11.07s-.07-.02-.11-.07c-.16-.02-.32-.02-.48-.03-.02.03-.03.05-.05.07-.02.02-.04.03-.07.03-.04,0-.09-.03-.14-.09-.15,0-.3-.01-.45-.02-.04.05-.07.08-.11.08-.04,0-.08-.02-.13-.06-.2,0-.4,0-.61,0-.04,0-.08,0-.11,0-.17,0-.34,0-.5-.01h0c-.04.05-.08.07-.11.08s-.08-.02-.12-.07c-.16,0-.32,0-.48,0-.04.06-.07.09-.11.09-.04,0-.08-.03-.13-.09-.04,0-.09,0-.13,0-.12,0-.23,0-.35,0-.03.06-.07.1-.11.1-.04,0-.08-.03-.13-.1-.06,0-.12,0-.18,0-.1,0-.2,0-.3,0-.04.06-.07.1-.11.1-.04,0-.08-.03-.13-.1-.16,0-.31,0-.47-.01-.04.07-.08.11-.12.11-.04,0-.08-.03-.12-.1-.16,0-.32,0-.48-.01-.04.07-.08.11-.11.11s-.08-.03-.12-.11c-.3,0-.59-.01-.89-.02h-.02c-.02.06-.04.09-.06.09-.02,0-.04-.03-.06-.09h-.18c-.11.01-.22.02-.34,0-.13,0-.26,0-.39,0-.09.09-.18.13-.27.13-.04,0-.09-.01-.14-.03-.05-.02-.09-.05-.14-.09-.25,0-.5,0-.75-.02-.05,0-.1,0-.15,0-.02.04-.04.06-.06.08-.02.02-.04.02-.06.02-.04,0-.07-.05-.11-.12-.12-.02-.24-.03-.35-.05-.04.03-.07.05-.11.05s-.06-.03-.08-.08c-1.37-.12-2.73-.13-4.09-.1-1.77.07-3.55.21-5.3.21-.63.02-1.26.03-1.88.03-.05-.06-.13-.09-.22-.11-.2,0-.41,0-.61,0-.17.02-.35.03-.48,0-.02.06-.04.08-.06.08-.02,0-.04-.03-.06-.08-.78,0-1.56.01-2.34.02-.04.08-.07.13-.11.13-.04,0-.08-.04-.12-.12-.16,0-.32,0-.48,0-.02.04-.04.07-.06.09s-.04.03-.06.04c-.04,0-.08-.04-.13-.12-.16,0-.31,0-.47,0-.04.08-.08.13-.12.13-.02,0-.04,0-.06-.03-.02-.02-.04-.05-.07-.09-.15,0-.31,0-.46,0-.04.08-.08.12-.13.12-.02,0-.04-.01-.06-.03-.02-.02-.04-.05-.06-.09-.39,0-.79,0-1.18,0-.04.08-.09.12-.13.12-.04,0-.08-.04-.13-.12-.28-.04-.56-.06-.84-.08-1.66-.04-3.32-.08-4.98-.09-1.11.02-2.21.04-3.32.01-.03.05-.07.07-.1.1-.02.01-.03.04-.05.04-.02.01-.04,0-.06.01-.03,0-.06.02-.08.02-.04,0-.09-.02-.12-.04,0,0,0,0,0,0-.02-.01-.03-.03-.04-.04-.08-.07-.11-.18-.03-.23.06-.05.18-.07.39-.01.81-.51,1.66-1.01,2.23-1.73.09-.11.16-.22.24-.34.22-.36.37-.77.42-1.26.1-1.27,1.26-3.32,1.21-4.71,0,0,0-.02,0-.03,0-.05-.02-.09-.02-.13-.01-.09-.02-.18-.04-.26,0-.01-.01-.03-.02-.04-.03-.11-.07-.21-.13-.31-.27-.43-.81-.7-1.77-.73-2.57-.01-5.17-.19-7.42-.04-2.5.17-4.56.74-5.63,2.41-.03.05-.06.11-.09.17-.05.09-.11.19-.16.29-.68,1.41-.76,3.49-.02,6.52.02.07.03.13.05.2,1.28,0,2.56,0,3.84,0,0,.09,0,.18,0,.26-1.29-.02-2.57.37-3.86-.22-.52.13-1.05.06-1.57,0-.4,0-.79,0-1.19-.02-.04.06-.09.1-.13.1-.03,0-.05-.01-.08-.03-.02-.02-.04-.04-.05-.07-.62-.01-1.24-.02-1.86-.03h-3.05c.03-.35.34-.52.57-.61,1.43-.61,1.67-1.94,2.01-3.21.18-1.23,1.21-3.18.94-4.42-.01-.05-.01-.09-.03-.14,0-.03-.03-.06-.04-.09-.03-.08-.06-.15-.1-.22-.25-.38-.72-.63-1.54-.68-2.62.05-5.31-.18-7.63-.08-2.44.11-4.47.58-5.54,2.14-.04.06-.08.13-.11.19-.05.08-.1.16-.15.25-.72,1.4-.8,3.53.01,6.76h-13.01s-.06.05-.06.05l-.06-.05c-.27-.02-.53-.04-.8-.07-.07.08-.14.12-.21.12-.04,0-.07-.01-.11-.03s-.07-.05-.1-.09c-.27.03-.53.07-.8.1-.03.04-.06.06-.09.06s-.06-.03-.08-.07c-.47,0-.93,0-1.4-.01-.03.04-.06.07-.09.07-.03,0-.06-.02-.09-.08-.19,0-.39.01-.58.02-.17.1-.33.1-.5,0-.09-.03-.2-.05-.31-.06-1.15.05-2.72.19-4.03.18-.89.03-1.67-.03-2.09-.31-.33-.17-.47-.42-.31-.8.26-.48.44-1.02.6-1.58s.29-1.15.43-1.71c.19-.75.43-1.47.8-2.08.18-.31.39-.6.66-.84.78-.33,1.39-.9,1.98-1.48.67-.67,1.33-1.34,2.17-1.7.11-.05.22-.11.34-.15,0-.05.01-.07.02-.07,0,0,.02.02.04.06.49,0,.97,0,1.46,0,1.35,0,2.71,0,4.06,0,2.15,0,4.3,0,6.45,0,.18,0,.36,0,.54,0,.18-.21.37-.33.55-.34.09,0,.19.02.28.08.09.05.19.14.28.25,3.87-.26,7.8-.36,11.74-.42,5.2-.18,38.14-1.08,39.23-1.11,31.81-.97,63.73-1.19,95.66-1.35,23.01-.2,46.02-.35,69.01-.58,4.98-.22,9.97-.31,14.97-.33,11.35-.19,22.76.18,34.13.1,8.74-.11,17.46-.48,26.09-1.47.06,0,.12-.01.18-.02.34-.06.67-.12.99-.18.7-.14,1.38-.3,2-.38,0,0,0,0,0,0,.1-.01.2-.02.3-.03.64-.06,1.14,0,1.49.29,0,0,.01,0,.02.01.04.03.07.07.1.1.5.49.67,1.45.3,3.28,0,0,0,.02,0,.03Zm14.82-1.93s-.08.06-.12.1c-.08.2-.19.37-.37.51-.39.17-.78.31-1.18.44-1.75.74-3.9.88-5.89,1.36-1.33.37-2.59.9-3.72,1.83,0,0-.01.01-.02.02-1.38,1.41-1.78-.13-1.8-2.32-.02-2.54.47-5.96.58-6.69.13.7.26,1.31.38,1.84.03.12.05.22.08.33.03.13.06.27.1.4.82,3.22,1.32,2.44,1.47.43.14-1.8,0-4.6-.41-6.42-.02-.07-.04-.12-.05-.19-.05-.18-.09-.37-.14-.53,0,0,0,0,0,0,0,0,0,0,0,0,0,0,0,0,0-.01.14-.55.7-.37,1.48.13.44.29.95.68,1.49,1.11,1.16.92,2.44,1.98,3.42,2.42.29.13.54.19.77.19.03,0,.06,0,.08,0,.88.07,1.54.15,2.04.27.67,0,1.26.1,1.43.75,0,.06,0,.12,0,.18.18.41.2.97.23,1.73.13.67.24,1.35.15,1.89,0,.08.02.15.03.23Zm8.33,7.44c-.14-.04-.29-.07-.43-.09-.29-.05-.59-.08-.88-.11-.17-.02-.34-.04-.51-.07-.33-.05-.64-.13-.95-.25-.23-.09-.45-.2-.67-.36-.4-.28-1.23-1.12-1.58-1.8-.2-.39-.24-.74.07-.89.12-.06.29-.09.53-.09,1.08.03,3.78.71,5.49,1.48.24.11.47.22.66.34.05.03.09.05.13.08.15.09.28.18.38.27.71.61.36,1.19-2.24,1.49Zm5.33-6.84c-.43,1.33-1.32,2.33-3.06,2.18-.07,0-.13,0-.2-.01-.06-.02-.13-.03-.19-.04-1.36-.32-3.35-.42-4.85-1.01-.7-.28-1.28-.66-1.65-1.23-.27-.42-.42-.95-.4-1.6,0-.15-.02-.28-.03-.42-.07-.84-.22-1.47-.28-1.95-.15-1.08.14-1.46,2.79-1.91,1.67-1.02,3.06-1.98,4.19-2.54,1.13-.56,2.01-.73,2.66-.18.77.65,1.21,2.33,1.37,5.57.03,1-.04,2.16-.36,3.14Z"/><path class="cls-4" d="m77.73,96.56c-.07.06-.04.16.03.23.01.01.03.03.04.04,0,0,0,0,0,0,.04.02.08.04.12.04.03,0,.06-.01.08-.02.02,0,.04,0,.06-.01.02,0,.03-.03.05-.04.03-.03.07-.05.1-.1-.04-.05-.08-.11-.11-.16-.21-.05-.33-.03-.39.01Z"/><path class="cls-4" d="m183.68,96.94s-.1.03-.15.05c.05.02.1.03.15.04.28.07.57.08.85-.02.02,0,.04,0,.06-.02-.02-.01-.04-.01-.06-.02-.28-.14-.57-.13-.85-.03Z"/><path class="cls-4" d="m124.8,96.79c.1.06.21.09.31.1.08,0,.16-.02.25-.05.03,0,.05,0,.08-.02-.21-.15-.42-.18-.64-.03Z"/><path class="cls-4" d="m244.61,14.38c-.12.05-.15.1-.07.21.06-.03.11-.07.17-.1-.03-.03-.06-.07-.09-.1Z"/><path class="cls-4" d="m29.63,96.4c-.08,0-.15.03-.23.08.17.09.33.1.5,0-.08-.05-.15-.07-.23-.07-.01,0-.03,0-.04,0Z"/><path class="cls-4" d="m33.04,96.38s.07.07.1.09.07.03.11.03c.07,0,.14-.04.21-.12h0c-.14-.12-.28-.11-.42,0Z"/><path class="cls-4" d="m107.9,96.91s.09.07.14.09c.05.02.09.03.14.03.09,0,.18-.04.27-.13-.06-.03-.13-.04-.19-.05-.12-.02-.23-.02-.35.05Z"/><path class="cls-4" d="m139.18,96.87c.02.05.05.1.07.12.02.03.05.04.07.04.05,0,.1-.05.15-.16-.1-.08-.2-.08-.3,0Z"/><path class="cls-4" d="m63.89,96.55s.02.02.02.03c.02.03.04.05.05.07.03.02.05.03.08.03.04,0,.09-.04.13-.1,0-.01.02-.02.03-.03h0c-.1,0-.21,0-.31,0Z"/><path class="cls-4" d="m118.17,96.83s.1.05.14.05c.04,0,.09-.03.13-.07h0c-.1-.12-.19-.09-.27.02Z"/><path class="cls-4" d="m110.37,96.92c.04.07.08.11.12.11s.08-.04.11-.11h0c-.08,0-.15,0-.23,0Z"/><path class="cls-4" d="m88.86,96.96s.04.03.06.03c.04,0,.09-.04.13-.12-.09,0-.17,0-.26,0,.02.04.04.07.06.09Z"/><path class="cls-4" d="m89.59,96.97s.04.03.06.03c.04,0,.08-.04.12-.13-.08,0-.17,0-.25,0,.02.04.04.07.07.09Z"/><path class="cls-4" d="m90.37,96.99s.04-.01.06-.04.04-.05.06-.09c-.08,0-.16,0-.24,0,.04.08.09.12.13.12Z"/><path class="cls-4" d="m91.09,96.99s.08-.05.11-.13c-.08,0-.15,0-.23,0,.04.09.08.13.12.12Z"/><path class="cls-4" d="m93.54,96.84c.02.05.04.08.06.08.02,0,.04-.03.06-.08,0,0-.06-.04-.06-.04l-.06.04Z"/><path class="cls-4" d="m94.8,96.83c.06.04.12.07.18.11,0-.05-.02-.08-.04-.1-.03-.03-.07-.03-.13,0Z"/><path class="cls-4" d="m106.89,96.99s.04,0,.06-.02c.02-.02.04-.04.06-.08-.07,0-.15,0-.22-.01.03.07.07.11.11.12Z"/><path class="cls-4" d="m106.24,96.8s.05.07.08.08.07-.01.11-.05h0c-.05-.08-.11-.1-.19-.03Z"/><path class="cls-4" d="m109.41,96.86l-.06.03c.02.06.04.09.06.09.02,0,.04-.03.06-.09h0s-.06-.04-.06-.04Z"/><path class="cls-4" d="m111.09,96.93c.04.07.08.1.12.1.04,0,.08-.04.12-.11h0c-.08,0-.16,0-.24,0Z"/><path class="cls-4" d="m112.05,96.93s-.06,0-.1,0c-.05,0-.1,0-.15,0,.04.06.09.1.13.1.04,0,.08-.04.11-.1,0,0,0,0,0,0h0Z"/><path class="cls-4" d="m112.52,96.94c.04.06.09.1.13.1.04,0,.07-.04.11-.1,0,0,0,0,.01,0,0,0,0,0,0,0-.06,0-.13,0-.19,0-.02,0-.04,0-.06,0Z"/><path class="cls-4" d="m113.24,96.95c.04.06.09.1.13.09.04,0,.07-.04.11-.09,0,0,0,0,.01,0,0,0,0,0,0,0-.06,0-.12,0-.17,0-.02,0-.05,0-.07,0Z"/><path class="cls-4" d="m113.95,96.95s.08.07.12.07.08-.02.11-.08c-.08-.08-.16-.08-.23,0Z"/><path class="cls-4" d="m114.7,96.95s0,0,0,0c.04,0,.08,0,.11,0,.04,0,.07,0,.11,0-.08-.11-.15-.1-.21,0Z"/><path class="cls-4" d="m115.41,96.96s.09.06.13.06c.04,0,.08-.03.11-.08h0c-.09-.07-.17-.07-.24.02Z"/><path class="cls-4" d="m116.23,96.95s-.08,0-.13,0c.05.06.09.09.14.09.02,0,.04,0,.07-.03.02-.01.03-.04.05-.07,0,0,0,0,.01-.01h0s-.09,0-.14,0Z"/><path class="cls-4" d="m116.84,96.98s.07.07.11.07.07-.02.11-.07c-.07-.07-.14-.08-.22,0Z"/><path class="cls-4" d="m117.56,96.94c.05.05.1.06.13.05.04,0,.07-.05.1-.1h0c-.09-.05-.17-.04-.23.05Z"/><path class="cls-4" d="m137.15,96.96s.08.05.11.05.06-.04.07-.1c0,0,0,0,0,0-.08-.06-.14-.05-.19.05Z"/><path class="cls-4" d="m34.26,96.45l.06.05s.06-.05.06-.05c-.04-.09-.08-.08-.12,0Z"/><path class="cls-4" d="m140.05,96.87s.05.08.08.12c.03-.04.05-.08.08-.12h0c-.05-.06-.1-.06-.16,0Z"/><path class="cls-4" d="m142.95,96.87s.03.07.05.1h0s.03-.07.05-.1c0,0-.05-.04-.05-.04l-.05.04Z"/><path class="cls-4" d="m145.79,96.89c.03.06.06.09.09.1.04,0,.07-.02.12-.07-.06-.08-.13-.09-.21-.03Z"/><path class="cls-4" d="m32.06,96.47s.05.07.08.07.06-.02.09-.06c-.05-.08-.11-.09-.18-.01Z"/><path class="cls-4" d="m180.65,97s0,0,0,0c.05,0,.11,0,.16,0,0,0,0,0,0,0-.05-.07-.09-.08-.14,0Z"/><path class="cls-4" d="m30.48,96.45c.03.05.06.08.09.08.03,0,.06-.03.09-.07-.06-.08-.12-.09-.18,0Z"/><path class="cls-4" d="m29.65,85.87s-.02.02-.02.07h0s.06,0,.06,0c-.01-.04-.03-.06-.04-.06Z"/><path class="cls-4" d="m87.49,96.98s.08-.04.13-.12c-.08,0-.17,0-.25,0,.04.08.08.12.13.12Z"/><path class="cls-4" d="m318.91,34.19c.68.47,1.52.74,2.36.67.14-.01.28-.03.42-.06,0,0,0,0,0,0,.07-.02.12-.04.18-.07.1-.04.2-.07.27-.13.52-.33.47-.82.22-1.35-.03-.06-.06-.11-.08-.17-.15-.28-.33-.57-.49-.85-.19-.33-.35-.64-.4-.92-.01-.04-.02-.07-.04-.1-.18-.55-.44-.89-.81-1.07-.33-.16-.73-.19-1.22-.12-.22.02-.47-.02-.71-.03-.28,0-.54.04-.68.31-.41.62-.52,1.25-.43,1.84.13.82.67,1.55,1.39,2.06Zm-.03-3.47s.02,0,.03.01c.08.02.16.04.24.08.52.23,1.16.78,1.49,1.26.41.59.38,1.08-.84.81-.3.02-.57-.01-.79-.09-.55-.2-.84-.7-.75-1.38.02-.14.05-.28.09-.43,0-.01.01-.02.02-.03.08-.21.26-.28.5-.23Z"/><path class="cls-2" d="m330.71,88.59c-.18-.18-.41-.29-.63-.33-.11-.02-.23-.02-.34,0s-.22.05-.31.11c-.1.06-.19.14-.26.24-.15.2-.24.49-.24.88,0,0,0,0,0,0,.77-.22,1.5-.16,2.21.2.01-.31-.07-.56-.19-.77-.07-.12-.15-.23-.24-.31Z"/><path class="cls-2" d="m33.61,91.53c-.02-.19-.05-.37-.11-.55,0,0,0,0,0,0-.13-.41-.36-.79-.68-1.11s-.74-.58-1.25-.74c-.02,0-.06,0-.08-.02-.76-.22-1.71-.25-2.87.03-1.61-.03-2.44.92-2.65,2.08-.04.24-.06.49-.05.75.06,1.65,1.22,3.38,3.11,3.3.15,0,.29-.02.45-.05,1.83.02,3.05-.72,3.68-1.7.03-.04.04-.08.06-.12.09-.16.18-.32.24-.49.03-.07.03-.14.05-.21.04-.14.09-.28.11-.43,0-.05,0-.1,0-.15.01-.17.03-.34.01-.5,0-.03-.01-.05-.02-.08Zm-3.52,1.06c-.24,0-.45-.07-.61-.2-.11-.06-.22-.13-.32-.22-.18-.15-.11-.33-.08-.5,0-.02,0-.03.01-.05-.02-.24.04-.48.18-.67.11-.22.28-.33.57-.36.29-.08.66-.09,1.15.02h0c.07-.09.13-.17.2-.22-.06.06-.13.13-.2.22.36.52.14,1.06.04,1.6-.32.3-.63.42-.94.4Zm1.91-.82c.1-.29.09-.66,0-.97.09.31.1.68,0,.97Z"/><path class="cls-4" d="m29.08,91.66c-.03.18-.1.36.08.5.02-.06.02-.12.02-.17,0-.1-.02-.2-.08-.29,0-.01,0-.03-.02-.04Z"/><path class="cls-5" d="m319.02,32.8c.22.08.49.11.79.09,1.22.27,1.24-.22.84-.81-.34-.49-.97-1.03-1.49-1.26-.08-.04-.16-.06-.24-.08-.01,0-.02,0-.03-.01-.24-.05-.43.01-.5.23,0,.01-.02.02-.02.03-.05.15-.08.29-.09.43-.08.68.2,1.18.75,1.38Z"/><path class="cls-5" d="m319.81,32.89c1.22.27,1.24-.22.84-.81.41.59.38,1.08-.84.81Z"/><path class="cls-5" d="m319.02,32.8c-.55-.2-.84-.7-.75-1.38-.08.68.2,1.18.75,1.38Z"/><path class="cls-5" d="m318.88,30.73c-.24-.05-.43.01-.5.23.08-.21.26-.28.5-.23Z"/></g></svg>