<?xml version="1.0" encoding="UTF-8"?><svg id="Layer_1" xmlns="http://www.w3.org/2000/svg" viewBox="0 0 359.62 240.84"><defs><style>.cls-1{fill:#162466;}.cls-1,.cls-2{stroke-width:0px;}.cls-2{fill:#e14c62;}</style></defs><path class="cls-1" d="M0,64.49h13.04c.58,6.87,2.68,11.06,16.88,11.06s16.53-4.19,16.53-7.33c0-5.24-4.65-6.29-15.6-7.68C9.31,57.85.93,56.45.93,47.02c0-5.47,3.49-8.03,10.13-9.54-6.75-3.49-8.96-9.08-8.96-15.83C2.09.81,23.51.81,31.31.81h26.19v5.94l-8.38,2.44c3.61,1.98,6.63,5.7,6.63,14.2,0,10.82-4.89,19.09-26.07,19.67-12.34.35-16.18.47-16.18,3.26s5.59,3.37,17.92,5c12.8,1.75,27.94,3.03,27.94,16.3,0,8.38-5.94,17.81-30.5,17.81-22.58,0-28.87-8.03-28.87-20.95ZM28.87,34.22c11.29,0,13.97-4.89,13.97-12.1,0-6.4-2.33-11.06-13.97-11.06s-14.08,4.54-14.08,11.41,2.44,11.75,14.08,11.75Z"/><path class="cls-1" d="M64.72,30.61c0-15.71,6.17-30.61,29.57-30.61s29.57,14.9,29.57,30.61-6.4,30.61-29.68,30.61-29.45-14.78-29.45-30.61ZM94.17,51.1c13.97,0,16.99-8.96,16.99-20.49s-2.79-20.49-16.88-20.49-16.88,9.31-16.88,20.49,3.03,20.49,16.76,20.49Z"/><path class="cls-1" d="M62.47,85.51h13.62l17.69,49.12,18.16-49.12h14.08l-25.26,59.6h-14.2l-24.1-59.6Z"/><path class="cls-1" d="M128.01,115.31c0-15.71,6.17-30.61,29.57-30.61s29.57,14.9,29.57,30.61-6.4,30.61-29.68,30.61-29.45-14.78-29.45-30.61ZM157.46,135.79c13.97,0,16.99-8.96,16.99-20.49s-2.79-20.49-16.88-20.49-16.88,9.31-16.88,20.49,3.03,20.49,16.76,20.49Z"/><path class="cls-1" d="M225.09,135.2c-13.17,0-16.65-8.72-16.65-20.02s3.6-20.37,16.41-20.37c8.9,0,12.79,4.21,14.07,11.75h12.95c-1-13.36-9.64-21.87-26.67-21.87-23.05,0-29.46,14.78-29.46,30.6s6.18,30.62,29.7,30.62c16.91,0,25.25-8.19,26.39-21.06h-13.01c-1.38,6.63-5.14,10.33-13.74,10.33Z"/><path class="cls-1" d="M260.47,127.64c0-10.94,7.8-15.83,24.79-17.58l18.74-1.86c-.35-9.78-3.49-13.62-15.48-13.62-11.06,0-14.08,4.42-14.08,11.87l-12.11.12c0-12.34,5.12-21.88,26.07-21.88,24.33,0,27.82,10.47,27.82,26.54v33.87h-6.75l-2.56-8.96c-2.79,4.66-11.06,9.78-23.4,9.78s-23.05-5.7-23.05-18.28ZM286.66,136.14c11.99,0,17.34-6.28,17.34-16.64v-1.86l-16.88,1.86c-10.36,1.16-13.85,3.37-13.85,8.03,0,5.47,4.66,8.61,13.39,8.61Z"/><path class="cls-1" d="M327.98,62.81h12.45v82.29h-12.45V62.81Z"/><polygon class="cls-2" points="352.26 156.54 349.42 166.48 234.66 166.48 234.66 166.48 218 166.48 188.37 200.39 188.37 166.5 183.74 166.5 183.74 166.48 128.01 166.48 128.01 178.94 175.91 178.94 175.91 219.56 188.13 219.56 223.74 178.94 359.62 178.94 359.62 168.73 359.62 166.48 359.62 156.54 352.26 156.54"/><path class="cls-1" d="M225.15,213.57v-18.67h12.14l-.38,2.61h-8.38v5.44h7.4v2.61h-7.4v8h-3.37Z"/><path class="cls-1" d="M245.58,213.84c-1.23,0-2.34-.28-3.32-.84s-1.75-1.37-2.3-2.42c-.55-1.05-.83-2.29-.83-3.73v-.46c0-1.45.28-2.7.83-3.74.55-1.04,1.32-1.85,2.29-2.41s2.07-.84,3.31-.84h.44c1.25,0,2.36.28,3.33.84.97.56,1.73,1.37,2.29,2.41.55,1.04.83,2.29.83,3.74v.46c0,1.43-.28,2.68-.83,3.73-.55,1.05-1.32,1.86-2.29,2.42-.97.56-2.07.84-3.31.84h-.44ZM245.77,211.69c.63,0,1.2-.15,1.7-.45.5-.3.9-.75,1.2-1.35.3-.6.45-1.32.45-2.18v-2.2c0-.87-.15-1.6-.45-2.19-.3-.59-.7-1.03-1.2-1.33-.5-.3-1.07-.45-1.7-.45s-1.17.15-1.67.45c-.5.3-.9.74-1.2,1.33-.3.59-.45,1.32-.45,2.19v2.2c0,.85.15,1.58.45,2.18.3.6.7,1.05,1.2,1.35.5.3,1.06.45,1.67.45Z"/><path class="cls-1" d="M255.87,213.57v-13.91h2.37l.41,2.04c.04-.05.13-.2.27-.44s.37-.5.68-.79.7-.54,1.17-.76,1.04-.33,1.71-.33c.96,0,1.75.19,2.35.57.61.38,1.06.9,1.36,1.57s.45,1.42.45,2.27c0,.2,0,.4-.03.61-.02.21-.04.38-.05.53h-2.67v-.54c0-.38-.07-.77-.22-1.17-.15-.4-.39-.73-.73-1.01s-.83-.41-1.44-.41c-.45,0-.84.1-1.16.29s-.58.43-.78.72c-.2.29-.34.6-.42.94-.08.34-.12.65-.12.94v8.87h-3.16Z"/><path class="cls-1" d="M269.31,213.57v-13.91h2.37l.44,2.04c.47-.73,1.03-1.29,1.69-1.7.65-.41,1.42-.61,2.31-.61s1.71.18,2.42.53c.71.35,1.26.93,1.66,1.73.42-.69.98-1.24,1.67-1.65s1.53-.61,2.49-.61c.89,0,1.68.18,2.37.54.69.36,1.23.89,1.62,1.59.39.7.58,1.56.58,2.57v9.47h-3.16v-8.79c0-1.05-.21-1.81-.63-2.27s-1.02-.69-1.8-.69c-.51,0-.96.13-1.36.39-.4.26-.71.63-.94,1.1s-.34,1.01-.34,1.61v8.65h-3.16v-8.79c0-1.05-.21-1.81-.64-2.27-.43-.46-1.03-.69-1.81-.69-.51,0-.96.13-1.36.39-.4.26-.71.63-.94,1.1s-.34,1.01-.34,1.61v8.65h-3.16Z"/><path class="cls-1" d="M298.79,213.84c-1.27,0-2.39-.27-3.35-.8-.96-.54-1.71-1.32-2.25-2.35s-.8-2.29-.8-3.76v-.63c0-1.47.29-2.72.86-3.75s1.35-1.82,2.34-2.35c.99-.54,2.12-.8,3.39-.8h.35c1.18,0,2.21.24,3.1.72.89.48,1.58,1.17,2.07,2.05.49.89.74,1.93.74,3.13v1.71h-9.55c0,.96.13,1.8.38,2.5.25.71.63,1.25,1.13,1.62s1.12.56,1.86.56c.62,0,1.17-.12,1.65-.37.48-.25.86-.61,1.14-1.1.28-.49.42-1.1.42-1.82h2.97c0,1.09-.27,2.04-.82,2.86-.54.82-1.28,1.45-2.2,1.91-.93.45-1.98.68-3.16.68h-.27ZM295.71,205.27h6.42c0-1.27-.28-2.21-.83-2.82-.55-.61-1.31-.91-2.27-.91-.91,0-1.67.31-2.3.94s-.97,1.56-1.02,2.79Z"/><path class="cls-1" d="M308.69,213.57v-13.91h2.37l.41,2.04c.04-.05.13-.2.27-.44s.37-.5.68-.79.7-.54,1.17-.76,1.04-.33,1.71-.33c.96,0,1.75.19,2.35.57.61.38,1.06.9,1.36,1.57s.45,1.42.45,2.27c0,.2,0,.4-.03.61-.02.21-.04.38-.05.53h-2.67v-.54c0-.38-.07-.77-.22-1.17-.15-.4-.39-.73-.73-1.01s-.83-.41-1.44-.41c-.45,0-.84.1-1.16.29s-.58.43-.78.72c-.2.29-.34.6-.42.94-.08.34-.12.65-.12.94v8.87h-3.16Z"/><path class="cls-1" d="M322.14,213.57v-19.59h3.16v19.59h-3.16Z"/><path class="cls-1" d="M330.87,218.63c-.42,0-.8-.03-1.16-.09s-.69-.16-.99-.29v-2.42c.2.09.46.17.79.23.33.06.64.09.95.09.47,0,.87-.09,1.18-.27.32-.18.6-.48.84-.9.25-.42.49-.96.72-1.63l-5.44-13.69h3.4l3.56,9.77h.16l3.46-9.77h3.13l-5.14,13.28c-.4,1.05-.84,2.01-1.32,2.87-.48.86-1.05,1.55-1.71,2.05s-1.47.76-2.44.76Z"/><path class="cls-1" d="M232.11,240.84c-1.07,0-2.07-.15-3.01-.46-.94-.31-1.75-.81-2.45-1.5s-1.25-1.59-1.65-2.71c-.4-1.12-.6-2.48-.6-4.1v-1.69c0-1.58.2-2.92.6-4.04.4-1.12.95-2.02,1.65-2.72.7-.7,1.51-1.21,2.42-1.52.92-.32,1.9-.48,2.95-.48h.41c.98,0,1.91.14,2.79.41.88.27,1.66.7,2.33,1.29.67.59,1.2,1.36,1.59,2.31.39.95.58,2.11.58,3.47h-3.18c0-1.29-.19-2.28-.56-2.98-.37-.7-.88-1.19-1.54-1.47-.65-.28-1.4-.42-2.23-.42-.62,0-1.19.09-1.71.27-.53.18-.98.48-1.36.9s-.68.98-.88,1.67c-.21.7-.31,1.56-.31,2.6v3.1c0,1.38.18,2.46.54,3.25.36.79.87,1.35,1.51,1.69.64.34,1.38.5,2.22.5.89,0,1.67-.14,2.33-.42.66-.28,1.18-.77,1.55-1.47.37-.7.56-1.68.56-2.95h3.08c0,1.31-.19,2.43-.57,3.38-.38.94-.9,1.71-1.57,2.31s-1.43,1.04-2.3,1.33c-.87.29-1.8.44-2.78.44h-.41Z"/><path class="cls-1" d="M243.24,223.53v-2.56h3.32v2.56h-3.32ZM243.32,240.57v-13.91h3.16v13.91h-3.16Z"/><path class="cls-1" d="M255.05,240.84c-.73,0-1.37-.11-1.95-.33-.57-.22-1.02-.58-1.33-1.08-.32-.5-.48-1.16-.48-1.97v-8.38h-1.52v-2.42h1.61l1.12-4.44h1.96v4.44h3.24v2.42h-3.24v7.76c0,.8.16,1.31.49,1.52.33.22.68.33,1.06.33.2,0,.48-.04.83-.14.35-.09.64-.18.86-.27v2.04c-.22.11-.48.2-.79.29-.31.08-.63.14-.95.18-.33.04-.63.05-.9.05Z"/><path class="cls-1" d="M261.1,223.53v-2.56h3.32v2.56h-3.32ZM261.18,240.57v-13.91h3.16v13.91h-3.16Z"/><path class="cls-1" d="M267.57,240.57v-1.12l6.48-10.59h-6.1v-2.2h10.31v1.09l-6.48,10.61h6.7v2.2h-10.91Z"/><path class="cls-1" d="M287.28,240.84c-1.27,0-2.39-.27-3.35-.8-.96-.54-1.71-1.32-2.25-2.35s-.8-2.29-.8-3.76v-.63c0-1.47.29-2.72.86-3.75s1.35-1.82,2.34-2.35c.99-.54,2.12-.8,3.39-.8h.35c1.18,0,2.21.24,3.1.72.89.48,1.58,1.17,2.07,2.05.49.89.74,1.93.74,3.13v1.71h-9.55c0,.96.13,1.8.38,2.5.25.71.63,1.25,1.13,1.62s1.12.56,1.86.56c.62,0,1.17-.12,1.65-.37.48-.25.86-.61,1.14-1.1.28-.49.42-1.1.42-1.82h2.97c0,1.09-.27,2.04-.82,2.86-.54.82-1.28,1.45-2.2,1.91-.93.45-1.98.68-3.16.68h-.27ZM284.2,232.27h6.42c0-1.27-.28-2.21-.83-2.82-.55-.61-1.31-.91-2.27-.91-.91,0-1.67.31-2.3.94s-.97,1.56-1.02,2.79Z"/><path class="cls-1" d="M297.18,240.57v-13.91h2.31l.41,2.04c.53-.76,1.18-1.34,1.96-1.73.78-.39,1.65-.58,2.61-.58s1.8.18,2.53.54c.73.36,1.29.89,1.7,1.59s.61,1.56.61,2.57v9.47h-3.16v-8.9c0-1.03-.24-1.77-.72-2.22s-1.15-.67-2-.67c-.56,0-1.08.14-1.55.42s-.85.66-1.13,1.13-.42,1.01-.42,1.61v8.63h-3.16Z"/><path class="cls-1" d="M313.62,240.57v-18.67h3.37v16.06h8.17l.41,2.61h-11.95Z"/><path class="cls-1" d="M331.61,240.84c-.74,0-1.46-.12-2.14-.35-.68-.24-1.24-.64-1.67-1.21-.44-.57-.65-1.35-.65-2.33s.22-1.81.67-2.42c.44-.62,1.08-1.09,1.89-1.42.82-.33,1.8-.55,2.94-.67,1.14-.12,2.41-.18,3.81-.18v-1.31c0-.91-.23-1.55-.69-1.92-.46-.37-1.17-.56-2.11-.56-.78,0-1.47.17-2.07.52-.6.34-.9.89-.9,1.63v.27h-3.05c-.02-.07-.03-.16-.03-.26v-.29c0-.8.25-1.5.75-2.1s1.19-1.06,2.08-1.39c.89-.33,1.91-.49,3.05-.49h.46c1.89,0,3.29.37,4.22,1.12.92.74,1.39,1.79,1.39,3.13v7.1c0,.34.08.59.25.73.16.15.34.22.54.22.18,0,.38-.04.58-.11.21-.07.4-.15.58-.25v1.93c-.24.18-.54.32-.9.42-.36.1-.8.15-1.31.15-.6,0-1.09-.11-1.48-.33-.39-.22-.68-.51-.88-.88-.2-.37-.32-.79-.35-1.27-.53.78-1.21,1.39-2.04,1.82-.83.44-1.81.65-2.94.65ZM332.97,238.69c.58,0,1.13-.13,1.66-.39.53-.26.96-.66,1.31-1.18.34-.53.52-1.19.52-1.99v-1.06c-1.27,0-2.36.07-3.27.2-.91.14-1.6.39-2.07.75-.47.36-.71.91-.71,1.63s.22,1.25.65,1.56c.44.32,1.07.48,1.91.48Z"/><path class="cls-1" d="M351.31,240.84c-2.05,0-3.61-.83-4.68-2.48l-1.09,2.2h-1.17v-19.59h3.16v7.4c.36-.53.89-.99,1.59-1.39.7-.4,1.52-.6,2.46-.6,1,0,1.91.23,2.74.69.83.46,1.48,1.18,1.97,2.15.49.97.74,2.22.74,3.74v.63c0,1.67-.26,3.04-.78,4.11-.52,1.07-1.21,1.86-2.07,2.37-.86.51-1.82.76-2.87.76ZM350.69,238.69c.58,0,1.1-.14,1.55-.44.45-.29.81-.74,1.08-1.36.26-.62.39-1.42.39-2.42v-1.93c0-.89-.13-1.62-.38-2.2-.25-.58-.6-1.02-1.03-1.31s-.94-.44-1.52-.44-1.12.15-1.61.44-.88.73-1.18,1.32c-.3.59-.45,1.33-.45,2.22v1.93c0,1,.14,1.81.42,2.42s.66,1.07,1.14,1.35,1.01.42,1.59.42Z"/></svg>